<mxfile host="drawio-plugin" modified="2022-01-16T19:33:59.265Z" agent="5.0 (Windows NT 6.2; Win64; x64) AppleWebKit/537.36 (KHTML, like Gecko) Chrome/84.0.4147.105 Safari/537.36" etag="8Z8fbWSy8Vh2e9_Bznko" version="14.7.4" type="embed" pages="2"><diagram id="C5RBs43oDa-KdzZeNtuy" name="ClassDiagram"><mxGraphModel dx="980" dy="663" grid="1" gridSize="10" guides="1" tooltips="1" connect="1" arrows="1" fold="1" page="1" pageScale="1" pageWidth="1169" pageHeight="827" math="0" shadow="0"><root><mxCell id="WIyWlLk6GJQsqaUBKTNV-0"/><mxCell id="WIyWlLk6GJQsqaUBKTNV-1" parent="WIyWlLk6GJQsqaUBKTNV-0"/><mxCell id="kBhU0fT-3gfCIoSobXOQ-0" value="ParkingTicket" style="swimlane;fontStyle=0;align=center;verticalAlign=top;childLayout=stackLayout;horizontal=1;startSize=26;horizontalStack=0;resizeParent=1;resizeLast=0;collapsible=1;marginBottom=0;rounded=0;shadow=0;strokeWidth=1;fillColor=#d5e8d4;strokeColor=#82b366;" parent="WIyWlLk6GJQsqaUBKTNV-1" vertex="1"><mxGeometry x="750" y="190" width="160" height="150" as="geometry"><mxRectangle x="230" y="140" width="160" height="26" as="alternateBounds"/></mxGeometry></mxCell><mxCell id="kBhU0fT-3gfCIoSobXOQ-1" value="ticketNumber: String" style="text;align=left;verticalAlign=top;spacingLeft=4;spacingRight=4;overflow=hidden;rotatable=0;points=[[0,0.5],[1,0.5]];portConstraint=eastwest;" parent="kBhU0fT-3gfCIoSobXOQ-0" vertex="1"><mxGeometry y="26" width="160" height="26" as="geometry"/></mxCell><mxCell id="kBhU0fT-3gfCIoSobXOQ-2" value="issuedAt: datetime" style="text;align=left;verticalAlign=top;spacingLeft=4;spacingRight=4;overflow=hidden;rotatable=0;points=[[0,0.5],[1,0.5]];portConstraint=eastwest;rounded=0;shadow=0;html=0;" parent="kBhU0fT-3gfCIoSobXOQ-0" vertex="1"><mxGeometry y="52" width="160" height="26" as="geometry"/></mxCell><mxCell id="kBhU0fT-3gfCIoSobXOQ-3" value="payedAt: datetime" style="text;align=left;verticalAlign=top;spacingLeft=4;spacingRight=4;overflow=hidden;rotatable=0;points=[[0,0.5],[1,0.5]];portConstraint=eastwest;rounded=0;shadow=0;html=0;" parent="kBhU0fT-3gfCIoSobXOQ-0" vertex="1"><mxGeometry y="78" width="160" height="22" as="geometry"/></mxCell><mxCell id="KImIEiAIoKswVsLweTeq-0" value="payedAmount: double" style="text;align=left;verticalAlign=top;spacingLeft=4;spacingRight=4;overflow=hidden;rotatable=0;points=[[0,0.5],[1,0.5]];portConstraint=eastwest;rounded=0;shadow=0;html=0;" parent="kBhU0fT-3gfCIoSobXOQ-0" vertex="1"><mxGeometry y="100" width="160" height="22" as="geometry"/></mxCell><mxCell id="KImIEiAIoKswVsLweTeq-1" value="status: ParkingTicketStatus" style="text;align=left;verticalAlign=top;spacingLeft=4;spacingRight=4;overflow=hidden;rotatable=0;points=[[0,0.5],[1,0.5]];portConstraint=eastwest;rounded=0;shadow=0;html=0;" parent="kBhU0fT-3gfCIoSobXOQ-0" vertex="1"><mxGeometry y="122" width="160" height="22" as="geometry"/></mxCell><mxCell id="KImIEiAIoKswVsLweTeq-2" value="ParkingAttendant" style="swimlane;fontStyle=0;align=center;verticalAlign=top;childLayout=stackLayout;horizontal=1;startSize=26;horizontalStack=0;resizeParent=1;resizeLast=0;collapsible=1;marginBottom=0;rounded=0;shadow=0;strokeWidth=1;fillColor=#d5e8d4;strokeColor=#82b366;" parent="WIyWlLk6GJQsqaUBKTNV-1" vertex="1"><mxGeometry x="1000" y="110" width="160" height="50" as="geometry"><mxRectangle x="340" y="380" width="170" height="26" as="alternateBounds"/></mxGeometry></mxCell><mxCell id="KImIEiAIoKswVsLweTeq-6" value="processTicket(): bool" style="text;html=1;align=center;verticalAlign=middle;resizable=0;points=[];autosize=1;strokeColor=none;fillColor=none;" parent="KImIEiAIoKswVsLweTeq-2" vertex="1"><mxGeometry y="26" width="160" height="20" as="geometry"/></mxCell><mxCell id="KImIEiAIoKswVsLweTeq-7" value="Admin" style="swimlane;fontStyle=0;align=center;verticalAlign=top;childLayout=stackLayout;horizontal=1;startSize=26;horizontalStack=0;resizeParent=1;resizeLast=0;collapsible=1;marginBottom=0;rounded=0;shadow=0;strokeWidth=1;fillColor=#d5e8d4;strokeColor=#82b366;" parent="WIyWlLk6GJQsqaUBKTNV-1" vertex="1"><mxGeometry x="1000" y="30" width="160" height="50" as="geometry"><mxRectangle x="340" y="380" width="170" height="26" as="alternateBounds"/></mxGeometry></mxCell><mxCell id="KImIEiAIoKswVsLweTeq-8" value="processTicket(): bool" style="text;html=1;align=center;verticalAlign=middle;resizable=0;points=[];autosize=1;strokeColor=none;fillColor=none;" parent="KImIEiAIoKswVsLweTeq-7" vertex="1"><mxGeometry y="26" width="160" height="20" as="geometry"/></mxCell><mxCell id="KImIEiAIoKswVsLweTeq-9" value="" style="endArrow=classic;html=1;rounded=0;exitX=0.5;exitY=1;exitDx=0;exitDy=0;entryX=0.5;entryY=0;entryDx=0;entryDy=0;" parent="WIyWlLk6GJQsqaUBKTNV-1" source="KImIEiAIoKswVsLweTeq-2" target="kBhU0fT-3gfCIoSobXOQ-0" edge="1"><mxGeometry relative="1" as="geometry"><mxPoint x="890" y="250" as="sourcePoint"/><mxPoint x="990" y="250" as="targetPoint"/></mxGeometry></mxCell><mxCell id="KImIEiAIoKswVsLweTeq-10" value="processes" style="edgeLabel;resizable=0;html=1;align=center;verticalAlign=middle;" parent="KImIEiAIoKswVsLweTeq-9" connectable="0" vertex="1"><mxGeometry relative="1" as="geometry"><mxPoint x="1" as="offset"/></mxGeometry></mxCell><mxCell id="KImIEiAIoKswVsLweTeq-11" value="Account" style="swimlane;fontStyle=2;align=center;verticalAlign=top;childLayout=stackLayout;horizontal=1;startSize=26;horizontalStack=0;resizeParent=1;resizeLast=0;collapsible=1;marginBottom=0;rounded=0;shadow=0;strokeWidth=1;fillColor=#d5e8d4;strokeColor=#82b366;" parent="WIyWlLk6GJQsqaUBKTNV-1" vertex="1"><mxGeometry x="750" y="22" width="160" height="104" as="geometry"><mxRectangle x="230" y="140" width="160" height="26" as="alternateBounds"/></mxGeometry></mxCell><mxCell id="KImIEiAIoKswVsLweTeq-12" value="userName: string" style="text;align=left;verticalAlign=top;spacingLeft=4;spacingRight=4;overflow=hidden;rotatable=0;points=[[0,0.5],[1,0.5]];portConstraint=eastwest;" parent="KImIEiAIoKswVsLweTeq-11" vertex="1"><mxGeometry y="26" width="160" height="26" as="geometry"/></mxCell><mxCell id="KImIEiAIoKswVsLweTeq-13" value="password: string" style="text;align=left;verticalAlign=top;spacingLeft=4;spacingRight=4;overflow=hidden;rotatable=0;points=[[0,0.5],[1,0.5]];portConstraint=eastwest;rounded=0;shadow=0;html=0;" parent="KImIEiAIoKswVsLweTeq-11" vertex="1"><mxGeometry y="52" width="160" height="26" as="geometry"/></mxCell><mxCell id="KImIEiAIoKswVsLweTeq-14" value="status: AccountStatus" style="text;align=left;verticalAlign=top;spacingLeft=4;spacingRight=4;overflow=hidden;rotatable=0;points=[[0,0.5],[1,0.5]];portConstraint=eastwest;rounded=0;shadow=0;html=0;" parent="KImIEiAIoKswVsLweTeq-11" vertex="1"><mxGeometry y="78" width="160" height="26" as="geometry"/></mxCell><mxCell id="KImIEiAIoKswVsLweTeq-19" value="Extends" style="endArrow=block;endSize=16;endFill=0;html=1;rounded=0;exitX=0;exitY=0.5;exitDx=0;exitDy=0;entryX=1;entryY=0.5;entryDx=0;entryDy=0;" parent="WIyWlLk6GJQsqaUBKTNV-1" source="KImIEiAIoKswVsLweTeq-7" target="KImIEiAIoKswVsLweTeq-13" edge="1"><mxGeometry width="160" relative="1" as="geometry"><mxPoint x="350" y="680" as="sourcePoint"/><mxPoint x="510" y="680" as="targetPoint"/></mxGeometry></mxCell><mxCell id="KImIEiAIoKswVsLweTeq-20" value="Extends" style="endArrow=block;endSize=16;endFill=0;html=1;rounded=0;exitX=0;exitY=0.5;exitDx=0;exitDy=0;entryX=1;entryY=0.5;entryDx=0;entryDy=0;" parent="WIyWlLk6GJQsqaUBKTNV-1" source="KImIEiAIoKswVsLweTeq-2" target="KImIEiAIoKswVsLweTeq-13" edge="1"><mxGeometry width="160" relative="1" as="geometry"><mxPoint x="160" y="690" as="sourcePoint"/><mxPoint x="320" y="690" as="targetPoint"/></mxGeometry></mxCell><mxCell id="KImIEiAIoKswVsLweTeq-22" value="CreditCardTransaction" style="swimlane;fontStyle=0;align=center;verticalAlign=top;childLayout=stackLayout;horizontal=1;startSize=26;horizontalStack=0;resizeParent=1;resizeLast=0;collapsible=1;marginBottom=0;rounded=0;shadow=0;strokeWidth=1;fillColor=#d5e8d4;strokeColor=#82b366;" parent="WIyWlLk6GJQsqaUBKTNV-1" vertex="1"><mxGeometry x="1000" y="380" width="160" height="50" as="geometry"><mxRectangle x="340" y="380" width="170" height="26" as="alternateBounds"/></mxGeometry></mxCell><mxCell id="KImIEiAIoKswVsLweTeq-23" value="processTicket(): bool" style="text;html=1;align=center;verticalAlign=middle;resizable=0;points=[];autosize=1;strokeColor=none;fillColor=none;" parent="KImIEiAIoKswVsLweTeq-22" vertex="1"><mxGeometry y="26" width="160" height="20" as="geometry"/></mxCell><mxCell id="KImIEiAIoKswVsLweTeq-24" value="CashTransaction" style="swimlane;fontStyle=0;align=center;verticalAlign=top;childLayout=stackLayout;horizontal=1;startSize=26;horizontalStack=0;resizeParent=1;resizeLast=0;collapsible=1;marginBottom=0;rounded=0;shadow=0;strokeWidth=1;fillColor=#d5e8d4;strokeColor=#82b366;" parent="WIyWlLk6GJQsqaUBKTNV-1" vertex="1"><mxGeometry x="1000" y="470" width="160" height="50" as="geometry"><mxRectangle x="340" y="380" width="170" height="26" as="alternateBounds"/></mxGeometry></mxCell><mxCell id="KImIEiAIoKswVsLweTeq-25" value="processTicket(): bool" style="text;html=1;align=center;verticalAlign=middle;resizable=0;points=[];autosize=1;strokeColor=none;fillColor=none;" parent="KImIEiAIoKswVsLweTeq-24" vertex="1"><mxGeometry y="26" width="160" height="20" as="geometry"/></mxCell><mxCell id="KImIEiAIoKswVsLweTeq-27" value="Payment" style="swimlane;fontStyle=2;align=center;verticalAlign=top;childLayout=stackLayout;horizontal=1;startSize=26;horizontalStack=0;resizeParent=1;resizeLast=0;collapsible=1;marginBottom=0;rounded=0;shadow=0;strokeWidth=1;fillColor=#d5e8d4;strokeColor=#82b366;" parent="WIyWlLk6GJQsqaUBKTNV-1" vertex="1"><mxGeometry x="750" y="380" width="160" height="170" as="geometry"><mxRectangle x="230" y="140" width="160" height="26" as="alternateBounds"/></mxGeometry></mxCell><mxCell id="KImIEiAIoKswVsLweTeq-28" value="ticketNumber: String" style="text;align=left;verticalAlign=top;spacingLeft=4;spacingRight=4;overflow=hidden;rotatable=0;points=[[0,0.5],[1,0.5]];portConstraint=eastwest;" parent="KImIEiAIoKswVsLweTeq-27" vertex="1"><mxGeometry y="26" width="160" height="26" as="geometry"/></mxCell><mxCell id="KImIEiAIoKswVsLweTeq-29" value="issuedAt: datetime" style="text;align=left;verticalAlign=top;spacingLeft=4;spacingRight=4;overflow=hidden;rotatable=0;points=[[0,0.5],[1,0.5]];portConstraint=eastwest;rounded=0;shadow=0;html=0;" parent="KImIEiAIoKswVsLweTeq-27" vertex="1"><mxGeometry y="52" width="160" height="26" as="geometry"/></mxCell><mxCell id="KImIEiAIoKswVsLweTeq-30" value="payedAt: datetime" style="text;align=left;verticalAlign=top;spacingLeft=4;spacingRight=4;overflow=hidden;rotatable=0;points=[[0,0.5],[1,0.5]];portConstraint=eastwest;rounded=0;shadow=0;html=0;" parent="KImIEiAIoKswVsLweTeq-27" vertex="1"><mxGeometry y="78" width="160" height="22" as="geometry"/></mxCell><mxCell id="KImIEiAIoKswVsLweTeq-31" value="payedAmount: double" style="text;align=left;verticalAlign=top;spacingLeft=4;spacingRight=4;overflow=hidden;rotatable=0;points=[[0,0.5],[1,0.5]];portConstraint=eastwest;rounded=0;shadow=0;html=0;" parent="KImIEiAIoKswVsLweTeq-27" vertex="1"><mxGeometry y="100" width="160" height="22" as="geometry"/></mxCell><mxCell id="KImIEiAIoKswVsLweTeq-34" style="line;html=1;strokeWidth=1;align=left;verticalAlign=middle;spacingTop=-1;spacingLeft=3;spacingRight=3;rotatable=0;labelPosition=right;points=[];portConstraint=eastwest;" parent="KImIEiAIoKswVsLweTeq-27" vertex="1"><mxGeometry y="122" width="160" height="10" as="geometry"/></mxCell><mxCell id="KImIEiAIoKswVsLweTeq-36" value="initiateTransaction(): bool" style="text;strokeColor=none;fillColor=none;align=left;verticalAlign=top;spacingLeft=4;spacingRight=4;overflow=hidden;rotatable=0;points=[[0,0.5],[1,0.5]];portConstraint=eastwest;" parent="KImIEiAIoKswVsLweTeq-27" vertex="1"><mxGeometry y="132" width="160" height="26" as="geometry"/></mxCell><mxCell id="KImIEiAIoKswVsLweTeq-37" style="text;strokeColor=none;fillColor=none;align=left;verticalAlign=top;spacingLeft=4;spacingRight=4;overflow=hidden;rotatable=0;points=[[0,0.5],[1,0.5]];portConstraint=eastwest;" parent="KImIEiAIoKswVsLweTeq-27" vertex="1"><mxGeometry y="158" width="160" height="12" as="geometry"/></mxCell><mxCell id="KImIEiAIoKswVsLweTeq-38" value="Extends" style="endArrow=block;endSize=16;endFill=0;html=1;rounded=0;exitX=0;exitY=0.5;exitDx=0;exitDy=0;entryX=1;entryY=0.5;entryDx=0;entryDy=0;" parent="WIyWlLk6GJQsqaUBKTNV-1" source="KImIEiAIoKswVsLweTeq-22" target="KImIEiAIoKswVsLweTeq-30" edge="1"><mxGeometry width="160" relative="1" as="geometry"><mxPoint x="930" y="630" as="sourcePoint"/><mxPoint x="1090" y="630" as="targetPoint"/></mxGeometry></mxCell><mxCell id="KImIEiAIoKswVsLweTeq-39" value="Extends" style="endArrow=block;endSize=16;endFill=0;html=1;rounded=0;exitX=0;exitY=0.5;exitDx=0;exitDy=0;entryX=1;entryY=0.5;entryDx=0;entryDy=0;" parent="WIyWlLk6GJQsqaUBKTNV-1" source="KImIEiAIoKswVsLweTeq-24" target="KImIEiAIoKswVsLweTeq-30" edge="1"><mxGeometry width="160" relative="1" as="geometry"><mxPoint x="590" y="690" as="sourcePoint"/><mxPoint x="920" y="470" as="targetPoint"/></mxGeometry></mxCell><mxCell id="KImIEiAIoKswVsLweTeq-40" value="" style="endArrow=none;html=1;rounded=0;entryX=0.5;entryY=1;entryDx=0;entryDy=0;exitX=0.5;exitY=0;exitDx=0;exitDy=0;" parent="WIyWlLk6GJQsqaUBKTNV-1" source="KImIEiAIoKswVsLweTeq-27" target="kBhU0fT-3gfCIoSobXOQ-0" edge="1"><mxGeometry width="50" height="50" relative="1" as="geometry"><mxPoint x="520" y="490" as="sourcePoint"/><mxPoint x="570" y="440" as="targetPoint"/></mxGeometry></mxCell><mxCell id="KImIEiAIoKswVsLweTeq-68" style="edgeStyle=orthogonalEdgeStyle;rounded=0;orthogonalLoop=1;jettySize=auto;html=1;exitX=1;exitY=0.5;exitDx=0;exitDy=0;entryX=0;entryY=0;entryDx=0;entryDy=0;" parent="WIyWlLk6GJQsqaUBKTNV-1" source="KImIEiAIoKswVsLweTeq-41" target="kBhU0fT-3gfCIoSobXOQ-0" edge="1"><mxGeometry relative="1" as="geometry"><Array as="points"><mxPoint x="720" y="61"/><mxPoint x="720" y="190"/></Array></mxGeometry></mxCell><mxCell id="KImIEiAIoKswVsLweTeq-69" value="prints" style="edgeLabel;html=1;align=center;verticalAlign=middle;resizable=0;points=[];" parent="KImIEiAIoKswVsLweTeq-68" vertex="1" connectable="0"><mxGeometry x="-0.1387" y="2" relative="1" as="geometry"><mxPoint as="offset"/></mxGeometry></mxCell><mxCell id="KImIEiAIoKswVsLweTeq-41" value="EntrancePanel" style="swimlane;fontStyle=0;align=center;verticalAlign=top;childLayout=stackLayout;horizontal=1;startSize=26;horizontalStack=0;resizeParent=1;resizeLast=0;collapsible=1;marginBottom=0;rounded=0;shadow=0;strokeWidth=1;fillColor=#d5e8d4;strokeColor=#82b366;" parent="WIyWlLk6GJQsqaUBKTNV-1" vertex="1"><mxGeometry x="510" y="22" width="160" height="78" as="geometry"><mxRectangle x="340" y="380" width="170" height="26" as="alternateBounds"/></mxGeometry></mxCell><mxCell id="KImIEiAIoKswVsLweTeq-43" value="id: string" style="text;html=1;align=center;verticalAlign=middle;resizable=0;points=[];autosize=1;strokeColor=none;fillColor=none;" parent="KImIEiAIoKswVsLweTeq-41" vertex="1"><mxGeometry y="26" width="160" height="20" as="geometry"/></mxCell><mxCell id="KImIEiAIoKswVsLweTeq-44" value="" style="line;strokeWidth=1;fillColor=none;align=left;verticalAlign=middle;spacingTop=-1;spacingLeft=3;spacingRight=3;rotatable=0;labelPosition=right;points=[];portConstraint=eastwest;" parent="KImIEiAIoKswVsLweTeq-41" vertex="1"><mxGeometry y="46" width="160" height="8" as="geometry"/></mxCell><mxCell id="KImIEiAIoKswVsLweTeq-42" value="printTicket(): bool" style="text;html=1;align=center;verticalAlign=middle;resizable=0;points=[];autosize=1;strokeColor=none;fillColor=none;" parent="KImIEiAIoKswVsLweTeq-41" vertex="1"><mxGeometry y="54" width="160" height="20" as="geometry"/></mxCell><mxCell id="KImIEiAIoKswVsLweTeq-70" style="edgeStyle=orthogonalEdgeStyle;rounded=0;orthogonalLoop=1;jettySize=auto;html=1;exitX=1;exitY=0.5;exitDx=0;exitDy=0;entryX=0;entryY=0.5;entryDx=0;entryDy=0;" parent="WIyWlLk6GJQsqaUBKTNV-1" source="KImIEiAIoKswVsLweTeq-45" target="kBhU0fT-3gfCIoSobXOQ-2" edge="1"><mxGeometry relative="1" as="geometry"/></mxCell><mxCell id="KImIEiAIoKswVsLweTeq-71" value="processes" style="edgeLabel;html=1;align=center;verticalAlign=middle;resizable=0;points=[];" parent="KImIEiAIoKswVsLweTeq-70" vertex="1" connectable="0"><mxGeometry x="-0.1477" y="1" relative="1" as="geometry"><mxPoint y="12" as="offset"/></mxGeometry></mxCell><mxCell id="KImIEiAIoKswVsLweTeq-45" value="ExitPanel" style="swimlane;fontStyle=0;align=center;verticalAlign=top;childLayout=stackLayout;horizontal=1;startSize=26;horizontalStack=0;resizeParent=1;resizeLast=0;collapsible=1;marginBottom=0;rounded=0;shadow=0;strokeWidth=1;fillColor=#d5e8d4;strokeColor=#82b366;" parent="WIyWlLk6GJQsqaUBKTNV-1" vertex="1"><mxGeometry x="510" y="112" width="160" height="94" as="geometry"><mxRectangle x="340" y="380" width="170" height="26" as="alternateBounds"/></mxGeometry></mxCell><mxCell id="KImIEiAIoKswVsLweTeq-46" value="id: string" style="text;html=1;align=center;verticalAlign=middle;resizable=0;points=[];autosize=1;strokeColor=none;fillColor=none;" parent="KImIEiAIoKswVsLweTeq-45" vertex="1"><mxGeometry y="26" width="160" height="20" as="geometry"/></mxCell><mxCell id="KImIEiAIoKswVsLweTeq-47" value="" style="line;strokeWidth=1;fillColor=none;align=left;verticalAlign=middle;spacingTop=-1;spacingLeft=3;spacingRight=3;rotatable=0;labelPosition=right;points=[];portConstraint=eastwest;" parent="KImIEiAIoKswVsLweTeq-45" vertex="1"><mxGeometry y="46" width="160" height="8" as="geometry"/></mxCell><mxCell id="KImIEiAIoKswVsLweTeq-48" value="scanTicket(): bool" style="text;html=1;align=center;verticalAlign=middle;resizable=0;points=[];autosize=1;strokeColor=none;fillColor=none;" parent="KImIEiAIoKswVsLweTeq-45" vertex="1"><mxGeometry y="54" width="160" height="20" as="geometry"/></mxCell><mxCell id="KImIEiAIoKswVsLweTeq-49" value="processPayment():bool" style="text;html=1;align=center;verticalAlign=middle;resizable=0;points=[];autosize=1;strokeColor=none;fillColor=none;" parent="KImIEiAIoKswVsLweTeq-45" vertex="1"><mxGeometry y="74" width="160" height="20" as="geometry"/></mxCell><mxCell id="KImIEiAIoKswVsLweTeq-72" style="edgeStyle=orthogonalEdgeStyle;rounded=0;orthogonalLoop=1;jettySize=auto;html=1;exitX=1;exitY=0.5;exitDx=0;exitDy=0;entryX=0;entryY=0.5;entryDx=0;entryDy=0;" parent="WIyWlLk6GJQsqaUBKTNV-1" source="KImIEiAIoKswVsLweTeq-50" target="kBhU0fT-3gfCIoSobXOQ-3" edge="1"><mxGeometry relative="1" as="geometry"><Array as="points"><mxPoint x="720" y="265"/><mxPoint x="720" y="279"/></Array></mxGeometry></mxCell><mxCell id="KImIEiAIoKswVsLweTeq-73" value="processes" style="edgeLabel;html=1;align=center;verticalAlign=middle;resizable=0;points=[];" parent="KImIEiAIoKswVsLweTeq-72" vertex="1" connectable="0"><mxGeometry x="-0.6104" y="1" relative="1" as="geometry"><mxPoint x="16" as="offset"/></mxGeometry></mxCell><mxCell id="KImIEiAIoKswVsLweTeq-50" value="ParkingAttendantPortal" style="swimlane;fontStyle=0;align=center;verticalAlign=top;childLayout=stackLayout;horizontal=1;startSize=26;horizontalStack=0;resizeParent=1;resizeLast=0;collapsible=1;marginBottom=0;rounded=0;shadow=0;strokeWidth=1;fillColor=#d5e8d4;strokeColor=#82b366;" parent="WIyWlLk6GJQsqaUBKTNV-1" vertex="1"><mxGeometry x="510" y="218" width="160" height="94" as="geometry"><mxRectangle x="340" y="380" width="170" height="26" as="alternateBounds"/></mxGeometry></mxCell><mxCell id="KImIEiAIoKswVsLweTeq-51" value="id: string" style="text;html=1;align=center;verticalAlign=middle;resizable=0;points=[];autosize=1;strokeColor=none;fillColor=none;" parent="KImIEiAIoKswVsLweTeq-50" vertex="1"><mxGeometry y="26" width="160" height="20" as="geometry"/></mxCell><mxCell id="KImIEiAIoKswVsLweTeq-52" value="" style="line;strokeWidth=1;fillColor=none;align=left;verticalAlign=middle;spacingTop=-1;spacingLeft=3;spacingRight=3;rotatable=0;labelPosition=right;points=[];portConstraint=eastwest;" parent="KImIEiAIoKswVsLweTeq-50" vertex="1"><mxGeometry y="46" width="160" height="8" as="geometry"/></mxCell><mxCell id="KImIEiAIoKswVsLweTeq-53" value="scanTicket(): bool" style="text;html=1;align=center;verticalAlign=middle;resizable=0;points=[];autosize=1;strokeColor=none;fillColor=none;" parent="KImIEiAIoKswVsLweTeq-50" vertex="1"><mxGeometry y="54" width="160" height="20" as="geometry"/></mxCell><mxCell id="KImIEiAIoKswVsLweTeq-54" value="processPayment():bool" style="text;html=1;align=center;verticalAlign=middle;resizable=0;points=[];autosize=1;strokeColor=none;fillColor=none;" parent="KImIEiAIoKswVsLweTeq-50" vertex="1"><mxGeometry y="74" width="160" height="20" as="geometry"/></mxCell><mxCell id="KImIEiAIoKswVsLweTeq-74" style="edgeStyle=orthogonalEdgeStyle;rounded=0;orthogonalLoop=1;jettySize=auto;html=1;exitX=1;exitY=0.25;exitDx=0;exitDy=0;entryX=0;entryY=0.5;entryDx=0;entryDy=0;" parent="WIyWlLk6GJQsqaUBKTNV-1" source="KImIEiAIoKswVsLweTeq-55" target="kBhU0fT-3gfCIoSobXOQ-3" edge="1"><mxGeometry relative="1" as="geometry"><Array as="points"><mxPoint x="720" y="344"/><mxPoint x="720" y="279"/></Array></mxGeometry></mxCell><mxCell id="KImIEiAIoKswVsLweTeq-75" value="processes" style="edgeLabel;html=1;align=center;verticalAlign=middle;resizable=0;points=[];" parent="KImIEiAIoKswVsLweTeq-74" vertex="1" connectable="0"><mxGeometry x="-0.1349" y="2" relative="1" as="geometry"><mxPoint x="-8" y="10" as="offset"/></mxGeometry></mxCell><mxCell id="KImIEiAIoKswVsLweTeq-55" value="CustomerInfoPortal" style="swimlane;fontStyle=0;align=center;verticalAlign=top;childLayout=stackLayout;horizontal=1;startSize=26;horizontalStack=0;resizeParent=1;resizeLast=0;collapsible=1;marginBottom=0;rounded=0;shadow=0;strokeWidth=1;fillColor=#d5e8d4;strokeColor=#82b366;" parent="WIyWlLk6GJQsqaUBKTNV-1" vertex="1"><mxGeometry x="510" y="320" width="160" height="94" as="geometry"><mxRectangle x="340" y="380" width="170" height="26" as="alternateBounds"/></mxGeometry></mxCell><mxCell id="KImIEiAIoKswVsLweTeq-56" value="id: string" style="text;html=1;align=center;verticalAlign=middle;resizable=0;points=[];autosize=1;strokeColor=none;fillColor=none;" parent="KImIEiAIoKswVsLweTeq-55" vertex="1"><mxGeometry y="26" width="160" height="20" as="geometry"/></mxCell><mxCell id="KImIEiAIoKswVsLweTeq-57" value="" style="line;strokeWidth=1;fillColor=none;align=left;verticalAlign=middle;spacingTop=-1;spacingLeft=3;spacingRight=3;rotatable=0;labelPosition=right;points=[];portConstraint=eastwest;" parent="KImIEiAIoKswVsLweTeq-55" vertex="1"><mxGeometry y="46" width="160" height="8" as="geometry"/></mxCell><mxCell id="KImIEiAIoKswVsLweTeq-58" value="scanTicket(): bool" style="text;html=1;align=center;verticalAlign=middle;resizable=0;points=[];autosize=1;strokeColor=none;fillColor=none;" parent="KImIEiAIoKswVsLweTeq-55" vertex="1"><mxGeometry y="54" width="160" height="20" as="geometry"/></mxCell><mxCell id="KImIEiAIoKswVsLweTeq-59" value="processPayment():bool" style="text;html=1;align=center;verticalAlign=middle;resizable=0;points=[];autosize=1;strokeColor=none;fillColor=none;" parent="KImIEiAIoKswVsLweTeq-55" vertex="1"><mxGeometry y="74" width="160" height="20" as="geometry"/></mxCell><mxCell id="KImIEiAIoKswVsLweTeq-76" style="edgeStyle=orthogonalEdgeStyle;rounded=0;orthogonalLoop=1;jettySize=auto;html=1;exitX=1;exitY=0.25;exitDx=0;exitDy=0;entryX=0;entryY=0.5;entryDx=0;entryDy=0;" parent="WIyWlLk6GJQsqaUBKTNV-1" source="KImIEiAIoKswVsLweTeq-60" target="kBhU0fT-3gfCIoSobXOQ-3" edge="1"><mxGeometry relative="1" as="geometry"><mxPoint x="740" y="280" as="targetPoint"/><Array as="points"><mxPoint x="720" y="450"/><mxPoint x="720" y="279"/></Array></mxGeometry></mxCell><mxCell id="KImIEiAIoKswVsLweTeq-77" value="has" style="edgeLabel;html=1;align=center;verticalAlign=middle;resizable=0;points=[];" parent="KImIEiAIoKswVsLweTeq-76" vertex="1" connectable="0"><mxGeometry x="-0.2854" y="3" relative="1" as="geometry"><mxPoint y="1" as="offset"/></mxGeometry></mxCell><mxCell id="KImIEiAIoKswVsLweTeq-60" value="Vehicle" style="swimlane;fontStyle=2;align=center;verticalAlign=top;childLayout=stackLayout;horizontal=1;startSize=26;horizontalStack=0;resizeParent=1;resizeLast=0;collapsible=1;marginBottom=0;rounded=0;shadow=0;strokeWidth=1;fillColor=#d5e8d4;strokeColor=#82b366;" parent="WIyWlLk6GJQsqaUBKTNV-1" vertex="1"><mxGeometry x="510" y="426" width="160" height="104" as="geometry"><mxRectangle x="340" y="380" width="170" height="26" as="alternateBounds"/></mxGeometry></mxCell><mxCell id="KImIEiAIoKswVsLweTeq-61" value="licenseNumber: string" style="text;html=1;align=center;verticalAlign=middle;resizable=0;points=[];autosize=1;strokeColor=none;fillColor=none;" parent="KImIEiAIoKswVsLweTeq-60" vertex="1"><mxGeometry y="26" width="160" height="20" as="geometry"/></mxCell><mxCell id="KImIEiAIoKswVsLweTeq-65" value="type: VehicleType" style="text;html=1;align=center;verticalAlign=middle;resizable=0;points=[];autosize=1;strokeColor=none;fillColor=none;" parent="KImIEiAIoKswVsLweTeq-60" vertex="1"><mxGeometry y="46" width="160" height="20" as="geometry"/></mxCell><mxCell id="KImIEiAIoKswVsLweTeq-62" value="" style="line;strokeWidth=1;fillColor=none;align=left;verticalAlign=middle;spacingTop=-1;spacingLeft=3;spacingRight=3;rotatable=0;labelPosition=right;points=[];portConstraint=eastwest;" parent="KImIEiAIoKswVsLweTeq-60" vertex="1"><mxGeometry y="66" width="160" height="8" as="geometry"/></mxCell><mxCell id="KImIEiAIoKswVsLweTeq-63" value="assignTicket(): void" style="text;html=1;align=center;verticalAlign=middle;resizable=0;points=[];autosize=1;strokeColor=none;fillColor=none;" parent="KImIEiAIoKswVsLweTeq-60" vertex="1"><mxGeometry y="74" width="160" height="20" as="geometry"/></mxCell><mxCell id="KImIEiAIoKswVsLweTeq-78" value="Motorbike" style="swimlane;fontStyle=0;align=center;verticalAlign=top;childLayout=stackLayout;horizontal=1;startSize=26;horizontalStack=0;resizeParent=1;resizeLast=0;collapsible=1;marginBottom=0;rounded=0;shadow=0;strokeWidth=1;fillColor=#d5e8d4;strokeColor=#82b366;" parent="WIyWlLk6GJQsqaUBKTNV-1" vertex="1"><mxGeometry x="680" y="608" width="80" height="50" as="geometry"><mxRectangle x="340" y="380" width="170" height="26" as="alternateBounds"/></mxGeometry></mxCell><mxCell id="KImIEiAIoKswVsLweTeq-80" value="Van" style="swimlane;fontStyle=0;align=center;verticalAlign=top;childLayout=stackLayout;horizontal=1;startSize=26;horizontalStack=0;resizeParent=1;resizeLast=0;collapsible=1;marginBottom=0;rounded=0;shadow=0;strokeWidth=1;fillColor=#d5e8d4;strokeColor=#82b366;" parent="WIyWlLk6GJQsqaUBKTNV-1" vertex="1"><mxGeometry x="585" y="608" width="80" height="50" as="geometry"><mxRectangle x="340" y="380" width="170" height="26" as="alternateBounds"/></mxGeometry></mxCell><mxCell id="KImIEiAIoKswVsLweTeq-81" value="Electric" style="swimlane;fontStyle=0;align=center;verticalAlign=top;childLayout=stackLayout;horizontal=1;startSize=26;horizontalStack=0;resizeParent=1;resizeLast=0;collapsible=1;marginBottom=0;rounded=0;shadow=0;strokeWidth=1;fillColor=#d5e8d4;strokeColor=#82b366;" parent="WIyWlLk6GJQsqaUBKTNV-1" vertex="1"><mxGeometry x="490" y="608" width="80" height="50" as="geometry"><mxRectangle x="340" y="380" width="170" height="26" as="alternateBounds"/></mxGeometry></mxCell><mxCell id="KImIEiAIoKswVsLweTeq-82" value="Truck" style="swimlane;fontStyle=0;align=center;verticalAlign=top;childLayout=stackLayout;horizontal=1;startSize=26;horizontalStack=0;resizeParent=1;resizeLast=0;collapsible=1;marginBottom=0;rounded=0;shadow=0;strokeWidth=1;fillColor=#d5e8d4;strokeColor=#82b366;" parent="WIyWlLk6GJQsqaUBKTNV-1" vertex="1"><mxGeometry x="390" y="608" width="80" height="50" as="geometry"><mxRectangle x="340" y="380" width="170" height="26" as="alternateBounds"/></mxGeometry></mxCell><mxCell id="KImIEiAIoKswVsLweTeq-83" value="Car" style="swimlane;fontStyle=0;align=center;verticalAlign=top;childLayout=stackLayout;horizontal=1;startSize=26;horizontalStack=0;resizeParent=1;resizeLast=0;collapsible=1;marginBottom=0;rounded=0;shadow=0;strokeWidth=1;fillColor=#d5e8d4;strokeColor=#82b366;" parent="WIyWlLk6GJQsqaUBKTNV-1" vertex="1"><mxGeometry x="290" y="608" width="80" height="50" as="geometry"><mxRectangle x="340" y="380" width="170" height="26" as="alternateBounds"/></mxGeometry></mxCell><mxCell id="KImIEiAIoKswVsLweTeq-90" value="" style="endArrow=none;html=1;rounded=0;exitX=0.5;exitY=0;exitDx=0;exitDy=0;entryX=0.5;entryY=0;entryDx=0;entryDy=0;" parent="WIyWlLk6GJQsqaUBKTNV-1" source="KImIEiAIoKswVsLweTeq-83" target="KImIEiAIoKswVsLweTeq-78" edge="1"><mxGeometry width="50" height="50" relative="1" as="geometry"><mxPoint x="600" y="510" as="sourcePoint"/><mxPoint x="800" y="580" as="targetPoint"/><Array as="points"><mxPoint x="330" y="580"/><mxPoint x="600" y="580"/><mxPoint x="700" y="580"/><mxPoint x="720" y="580"/></Array></mxGeometry></mxCell><mxCell id="KImIEiAIoKswVsLweTeq-92" value="" style="endArrow=none;html=1;rounded=0;exitX=0.5;exitY=0;exitDx=0;exitDy=0;" parent="WIyWlLk6GJQsqaUBKTNV-1" source="KImIEiAIoKswVsLweTeq-82" edge="1"><mxGeometry width="50" height="50" relative="1" as="geometry"><mxPoint x="240" y="540" as="sourcePoint"/><mxPoint x="430" y="580" as="targetPoint"/><Array as="points"/></mxGeometry></mxCell><mxCell id="KImIEiAIoKswVsLweTeq-94" value="" style="endArrow=none;html=1;rounded=0;exitX=0.5;exitY=0;exitDx=0;exitDy=0;" parent="WIyWlLk6GJQsqaUBKTNV-1" source="KImIEiAIoKswVsLweTeq-81" edge="1"><mxGeometry width="50" height="50" relative="1" as="geometry"><mxPoint x="590" y="600" as="sourcePoint"/><mxPoint x="530" y="580" as="targetPoint"/></mxGeometry></mxCell><mxCell id="KImIEiAIoKswVsLweTeq-95" value="" style="endArrow=none;html=1;rounded=0;exitX=0.5;exitY=0;exitDx=0;exitDy=0;" parent="WIyWlLk6GJQsqaUBKTNV-1" source="KImIEiAIoKswVsLweTeq-80" edge="1"><mxGeometry width="50" height="50" relative="1" as="geometry"><mxPoint x="520" y="638" as="sourcePoint"/><mxPoint x="625" y="580" as="targetPoint"/></mxGeometry></mxCell><mxCell id="KImIEiAIoKswVsLweTeq-97" value="Extends" style="endArrow=block;endSize=16;endFill=0;html=1;rounded=0;entryX=0.5;entryY=1;entryDx=0;entryDy=0;" parent="WIyWlLk6GJQsqaUBKTNV-1" target="KImIEiAIoKswVsLweTeq-60" edge="1"><mxGeometry x="-0.2" width="160" relative="1" as="geometry"><mxPoint x="590" y="580" as="sourcePoint"/><mxPoint x="190" y="730" as="targetPoint"/><mxPoint as="offset"/></mxGeometry></mxCell><mxCell id="KImIEiAIoKswVsLweTeq-98" value="EntrancePanel" style="swimlane;fontStyle=0;align=center;verticalAlign=top;childLayout=stackLayout;horizontal=1;startSize=26;horizontalStack=0;resizeParent=1;resizeLast=0;collapsible=1;marginBottom=0;rounded=0;shadow=0;strokeWidth=1;fillColor=#d5e8d4;strokeColor=#82b366;" parent="WIyWlLk6GJQsqaUBKTNV-1" vertex="1"><mxGeometry x="10" y="710" width="160" height="94" as="geometry"><mxRectangle x="340" y="380" width="170" height="26" as="alternateBounds"/></mxGeometry></mxCell><mxCell id="KImIEiAIoKswVsLweTeq-102" value="chargingStartTime: dateTime" style="text;html=1;align=center;verticalAlign=middle;resizable=0;points=[];autosize=1;strokeColor=none;fillColor=none;" parent="KImIEiAIoKswVsLweTeq-98" vertex="1"><mxGeometry y="26" width="160" height="20" as="geometry"/></mxCell><mxCell id="KImIEiAIoKswVsLweTeq-99" value="payedForMinutes: int" style="text;html=1;align=center;verticalAlign=middle;resizable=0;points=[];autosize=1;strokeColor=none;fillColor=none;" parent="KImIEiAIoKswVsLweTeq-98" vertex="1"><mxGeometry y="46" width="160" height="20" as="geometry"/></mxCell><mxCell id="KImIEiAIoKswVsLweTeq-100" value="" style="line;strokeWidth=1;fillColor=none;align=left;verticalAlign=middle;spacingTop=-1;spacingLeft=3;spacingRight=3;rotatable=0;labelPosition=right;points=[];portConstraint=eastwest;" parent="KImIEiAIoKswVsLweTeq-98" vertex="1"><mxGeometry y="66" width="160" height="8" as="geometry"/></mxCell><mxCell id="KImIEiAIoKswVsLweTeq-101" value="cancelCharging(): bool" style="text;html=1;align=center;verticalAlign=middle;resizable=0;points=[];autosize=1;strokeColor=none;fillColor=none;" parent="KImIEiAIoKswVsLweTeq-98" vertex="1"><mxGeometry y="74" width="160" height="20" as="geometry"/></mxCell><mxCell id="KImIEiAIoKswVsLweTeq-103" value="" style="endArrow=classic;html=1;rounded=0;exitX=0.5;exitY=0;exitDx=0;exitDy=0;entryX=0.481;entryY=1.25;entryDx=0;entryDy=0;entryPerimeter=0;" parent="WIyWlLk6GJQsqaUBKTNV-1" source="KImIEiAIoKswVsLweTeq-98" target="KImIEiAIoKswVsLweTeq-37" edge="1"><mxGeometry width="50" height="50" relative="1" as="geometry"><mxPoint x="270" y="800" as="sourcePoint"/><mxPoint x="840" y="704" as="targetPoint"/><Array as="points"><mxPoint x="90" y="680"/><mxPoint x="690" y="680"/><mxPoint x="827" y="680"/></Array></mxGeometry></mxCell><mxCell id="KImIEiAIoKswVsLweTeq-109" style="edgeStyle=orthogonalEdgeStyle;rounded=0;orthogonalLoop=1;jettySize=auto;html=1;exitX=1.013;exitY=0.35;exitDx=0;exitDy=0;exitPerimeter=0;" parent="WIyWlLk6GJQsqaUBKTNV-1" source="KImIEiAIoKswVsLweTeq-106" edge="1"><mxGeometry relative="1" as="geometry"><mxPoint x="510" y="479" as="targetPoint"/></mxGeometry></mxCell><mxCell id="KImIEiAIoKswVsLweTeq-110" value="has" style="edgeLabel;html=1;align=center;verticalAlign=middle;resizable=0;points=[];" parent="KImIEiAIoKswVsLweTeq-109" vertex="1" connectable="0"><mxGeometry x="-0.2739" y="-1" relative="1" as="geometry"><mxPoint as="offset"/></mxGeometry></mxCell><mxCell id="KImIEiAIoKswVsLweTeq-104" value="ParkingSpot" style="swimlane;fontStyle=2;align=center;verticalAlign=top;childLayout=stackLayout;horizontal=1;startSize=26;horizontalStack=0;resizeParent=1;resizeLast=0;collapsible=1;marginBottom=0;rounded=0;shadow=0;strokeWidth=1;fillColor=#d5e8d4;strokeColor=#82b366;" parent="WIyWlLk6GJQsqaUBKTNV-1" vertex="1"><mxGeometry x="270" y="426" width="160" height="114" as="geometry"><mxRectangle x="340" y="380" width="170" height="26" as="alternateBounds"/></mxGeometry></mxCell><mxCell id="KImIEiAIoKswVsLweTeq-105" value="number: string" style="text;html=1;align=center;verticalAlign=middle;resizable=0;points=[];autosize=1;strokeColor=none;fillColor=none;" parent="KImIEiAIoKswVsLweTeq-104" vertex="1"><mxGeometry y="26" width="160" height="20" as="geometry"/></mxCell><mxCell id="KImIEiAIoKswVsLweTeq-106" value="isEmpty: bool" style="text;html=1;align=center;verticalAlign=middle;resizable=0;points=[];autosize=1;strokeColor=none;fillColor=none;" parent="KImIEiAIoKswVsLweTeq-104" vertex="1"><mxGeometry y="46" width="160" height="20" as="geometry"/></mxCell><mxCell id="KImIEiAIoKswVsLweTeq-112" value="type: ParkingSlotType" style="text;html=1;align=center;verticalAlign=middle;resizable=0;points=[];autosize=1;strokeColor=none;fillColor=none;" parent="KImIEiAIoKswVsLweTeq-104" vertex="1"><mxGeometry y="66" width="160" height="20" as="geometry"/></mxCell><mxCell id="KImIEiAIoKswVsLweTeq-107" value="" style="line;strokeWidth=1;fillColor=none;align=left;verticalAlign=middle;spacingTop=-1;spacingLeft=3;spacingRight=3;rotatable=0;labelPosition=right;points=[];portConstraint=eastwest;" parent="KImIEiAIoKswVsLweTeq-104" vertex="1"><mxGeometry y="86" width="160" height="8" as="geometry"/></mxCell><mxCell id="KImIEiAIoKswVsLweTeq-108" value="getIsFree(): bool" style="text;html=1;align=center;verticalAlign=middle;resizable=0;points=[];autosize=1;strokeColor=none;fillColor=none;" parent="KImIEiAIoKswVsLweTeq-104" vertex="1"><mxGeometry y="94" width="160" height="20" as="geometry"/></mxCell><mxCell id="KImIEiAIoKswVsLweTeq-113" value="ParkingFloor" style="swimlane;fontStyle=0;align=center;verticalAlign=top;childLayout=stackLayout;horizontal=1;startSize=26;horizontalStack=0;resizeParent=1;resizeLast=0;collapsible=1;marginBottom=0;rounded=0;shadow=0;strokeWidth=1;fillColor=#d5e8d4;strokeColor=#82b366;" parent="WIyWlLk6GJQsqaUBKTNV-1" vertex="1"><mxGeometry x="270" y="210" width="160" height="150" as="geometry"><mxRectangle x="340" y="380" width="170" height="26" as="alternateBounds"/></mxGeometry></mxCell><mxCell id="KImIEiAIoKswVsLweTeq-114" value="name: string" style="text;html=1;align=center;verticalAlign=middle;resizable=0;points=[];autosize=1;strokeColor=none;fillColor=none;" parent="KImIEiAIoKswVsLweTeq-113" vertex="1"><mxGeometry y="26" width="160" height="20" as="geometry"/></mxCell><mxCell id="KImIEiAIoKswVsLweTeq-117" value="" style="line;strokeWidth=1;fillColor=none;align=left;verticalAlign=middle;spacingTop=-1;spacingLeft=3;spacingRight=3;rotatable=0;labelPosition=right;points=[];portConstraint=eastwest;" parent="KImIEiAIoKswVsLweTeq-113" vertex="1"><mxGeometry y="46" width="160" height="8" as="geometry"/></mxCell><mxCell id="KImIEiAIoKswVsLweTeq-118" value="updateDisplayBoard(): void" style="text;html=1;align=center;verticalAlign=middle;resizable=0;points=[];autosize=1;strokeColor=none;fillColor=none;" parent="KImIEiAIoKswVsLweTeq-113" vertex="1"><mxGeometry y="54" width="160" height="20" as="geometry"/></mxCell><mxCell id="KImIEiAIoKswVsLweTeq-133" value="addParkingSlot(): void" style="text;html=1;align=center;verticalAlign=middle;resizable=0;points=[];autosize=1;strokeColor=none;fillColor=none;" parent="KImIEiAIoKswVsLweTeq-113" vertex="1"><mxGeometry y="74" width="160" height="20" as="geometry"/></mxCell><mxCell id="KImIEiAIoKswVsLweTeq-132" value="assignVehicleToSlot(): void" style="text;html=1;align=center;verticalAlign=middle;resizable=0;points=[];autosize=1;strokeColor=none;fillColor=none;" parent="KImIEiAIoKswVsLweTeq-113" vertex="1"><mxGeometry y="94" width="160" height="20" as="geometry"/></mxCell><mxCell id="KImIEiAIoKswVsLweTeq-135" value="freeSlot(): void" style="text;html=1;align=center;verticalAlign=middle;resizable=0;points=[];autosize=1;strokeColor=none;fillColor=none;" parent="KImIEiAIoKswVsLweTeq-113" vertex="1"><mxGeometry y="114" width="160" height="20" as="geometry"/></mxCell><mxCell id="KImIEiAIoKswVsLweTeq-119" value="ParkingLot" style="swimlane;fontStyle=0;align=center;verticalAlign=top;childLayout=stackLayout;horizontal=1;startSize=26;horizontalStack=0;resizeParent=1;resizeLast=0;collapsible=1;marginBottom=0;rounded=0;shadow=0;strokeWidth=1;fillColor=#d5e8d4;strokeColor=#82b366;" parent="WIyWlLk6GJQsqaUBKTNV-1" vertex="1"><mxGeometry x="260" y="30" width="180" height="140" as="geometry"><mxRectangle x="340" y="380" width="170" height="26" as="alternateBounds"/></mxGeometry></mxCell><mxCell id="KImIEiAIoKswVsLweTeq-120" value="id: string" style="text;html=1;align=center;verticalAlign=middle;resizable=0;points=[];autosize=1;strokeColor=none;fillColor=none;" parent="KImIEiAIoKswVsLweTeq-119" vertex="1"><mxGeometry y="26" width="180" height="20" as="geometry"/></mxCell><mxCell id="KImIEiAIoKswVsLweTeq-121" value="address: Location" style="text;html=1;align=center;verticalAlign=middle;resizable=0;points=[];autosize=1;strokeColor=none;fillColor=none;" parent="KImIEiAIoKswVsLweTeq-119" vertex="1"><mxGeometry y="46" width="180" height="20" as="geometry"/></mxCell><mxCell id="KImIEiAIoKswVsLweTeq-123" value="" style="line;strokeWidth=1;fillColor=none;align=left;verticalAlign=middle;spacingTop=-1;spacingLeft=3;spacingRight=3;rotatable=0;labelPosition=right;points=[];portConstraint=eastwest;" parent="KImIEiAIoKswVsLweTeq-119" vertex="1"><mxGeometry y="66" width="180" height="8" as="geometry"/></mxCell><mxCell id="KImIEiAIoKswVsLweTeq-124" value="addParkingFloor(): bool" style="text;html=1;align=center;verticalAlign=middle;resizable=0;points=[];autosize=1;strokeColor=none;fillColor=none;" parent="KImIEiAIoKswVsLweTeq-119" vertex="1"><mxGeometry y="74" width="180" height="20" as="geometry"/></mxCell><mxCell id="KImIEiAIoKswVsLweTeq-128" value="addEntrancePanel(): bool" style="text;html=1;align=center;verticalAlign=middle;resizable=0;points=[];autosize=1;strokeColor=none;fillColor=none;" parent="KImIEiAIoKswVsLweTeq-119" vertex="1"><mxGeometry y="94" width="180" height="20" as="geometry"/></mxCell><mxCell id="KImIEiAIoKswVsLweTeq-129" value="getNewParingTicket(): ParkingTiket" style="text;html=1;align=center;verticalAlign=middle;resizable=0;points=[];autosize=1;strokeColor=none;fillColor=none;" parent="KImIEiAIoKswVsLweTeq-119" vertex="1"><mxGeometry y="114" width="180" height="20" as="geometry"/></mxCell><mxCell id="KImIEiAIoKswVsLweTeq-131" value="" style="endArrow=diamondThin;endFill=1;endSize=24;html=1;rounded=0;entryX=0.5;entryY=1;entryDx=0;entryDy=0;exitX=0.5;exitY=0;exitDx=0;exitDy=0;" parent="WIyWlLk6GJQsqaUBKTNV-1" source="KImIEiAIoKswVsLweTeq-113" target="KImIEiAIoKswVsLweTeq-119" edge="1"><mxGeometry width="160" relative="1" as="geometry"><mxPoint x="-50" y="440" as="sourcePoint"/><mxPoint x="230" y="260" as="targetPoint"/></mxGeometry></mxCell><mxCell id="KImIEiAIoKswVsLweTeq-136" value="" style="endArrow=diamondThin;endFill=1;endSize=24;html=1;rounded=0;entryX=0.5;entryY=1;entryDx=0;entryDy=0;exitX=0.5;exitY=0;exitDx=0;exitDy=0;" parent="WIyWlLk6GJQsqaUBKTNV-1" source="KImIEiAIoKswVsLweTeq-104" target="KImIEiAIoKswVsLweTeq-113" edge="1"><mxGeometry width="160" relative="1" as="geometry"><mxPoint x="120" y="400" as="sourcePoint"/><mxPoint x="280" y="400" as="targetPoint"/></mxGeometry></mxCell><mxCell id="KImIEiAIoKswVsLweTeq-137" value="" style="endArrow=diamondThin;endFill=1;endSize=24;html=1;rounded=0;entryX=1;entryY=0;entryDx=0;entryDy=0;exitX=0;exitY=0.25;exitDx=0;exitDy=0;" parent="WIyWlLk6GJQsqaUBKTNV-1" source="KImIEiAIoKswVsLweTeq-41" target="KImIEiAIoKswVsLweTeq-119" edge="1"><mxGeometry width="160" relative="1" as="geometry"><mxPoint x="50" y="410" as="sourcePoint"/><mxPoint x="210" y="410" as="targetPoint"/></mxGeometry></mxCell><mxCell id="KImIEiAIoKswVsLweTeq-138" value="" style="endArrow=diamondThin;endFill=1;endSize=24;html=1;rounded=0;exitX=0;exitY=0.25;exitDx=0;exitDy=0;entryX=1;entryY=0;entryDx=0;entryDy=0;" parent="WIyWlLk6GJQsqaUBKTNV-1" source="KImIEiAIoKswVsLweTeq-45" target="KImIEiAIoKswVsLweTeq-119" edge="1"><mxGeometry width="160" relative="1" as="geometry"><mxPoint x="110" y="430" as="sourcePoint"/><mxPoint x="460" y="90" as="targetPoint"/></mxGeometry></mxCell><mxCell id="KImIEiAIoKswVsLweTeq-139" value="" style="endArrow=diamondThin;endFill=1;endSize=24;html=1;rounded=0;entryX=1;entryY=0.55;entryDx=0;entryDy=0;entryPerimeter=0;exitX=0;exitY=0;exitDx=0;exitDy=0;" parent="WIyWlLk6GJQsqaUBKTNV-1" source="KImIEiAIoKswVsLweTeq-50" target="KImIEiAIoKswVsLweTeq-120" edge="1"><mxGeometry width="160" relative="1" as="geometry"><mxPoint x="90" y="310" as="sourcePoint"/><mxPoint x="250" y="310" as="targetPoint"/></mxGeometry></mxCell><mxCell id="KImIEiAIoKswVsLweTeq-140" value="" style="endArrow=diamondThin;endFill=1;endSize=24;html=1;rounded=0;entryX=1;entryY=0;entryDx=0;entryDy=0;exitX=0;exitY=0;exitDx=0;exitDy=0;" parent="WIyWlLk6GJQsqaUBKTNV-1" source="KImIEiAIoKswVsLweTeq-55" target="KImIEiAIoKswVsLweTeq-113" edge="1"><mxGeometry width="160" relative="1" as="geometry"><mxPoint x="120" y="510" as="sourcePoint"/><mxPoint x="280" y="510" as="targetPoint"/></mxGeometry></mxCell><mxCell id="KImIEiAIoKswVsLweTeq-141" value="ParkingRate" style="swimlane;fontStyle=0;align=center;verticalAlign=top;childLayout=stackLayout;horizontal=1;startSize=26;horizontalStack=0;resizeParent=1;resizeLast=0;collapsible=1;marginBottom=0;rounded=0;shadow=0;strokeWidth=1;fillColor=#d5e8d4;strokeColor=#82b366;" parent="WIyWlLk6GJQsqaUBKTNV-1" vertex="1"><mxGeometry x="20" y="32" width="160" height="78" as="geometry"><mxRectangle x="340" y="380" width="170" height="26" as="alternateBounds"/></mxGeometry></mxCell><mxCell id="KImIEiAIoKswVsLweTeq-142" value="hoursNumber:int" style="text;html=1;align=center;verticalAlign=middle;resizable=0;points=[];autosize=1;strokeColor=none;fillColor=none;" parent="KImIEiAIoKswVsLweTeq-141" vertex="1"><mxGeometry y="26" width="160" height="20" as="geometry"/></mxCell><mxCell id="KImIEiAIoKswVsLweTeq-143" value="rate: double" style="text;html=1;align=center;verticalAlign=middle;resizable=0;points=[];autosize=1;strokeColor=none;fillColor=none;" parent="KImIEiAIoKswVsLweTeq-141" vertex="1"><mxGeometry y="46" width="160" height="20" as="geometry"/></mxCell><mxCell id="KImIEiAIoKswVsLweTeq-146" value="" style="endArrow=diamondThin;endFill=1;endSize=24;html=1;rounded=0;entryX=0;entryY=0;entryDx=0;entryDy=0;exitX=1;exitY=0.25;exitDx=0;exitDy=0;" parent="WIyWlLk6GJQsqaUBKTNV-1" source="KImIEiAIoKswVsLweTeq-141" target="KImIEiAIoKswVsLweTeq-119" edge="1"><mxGeometry width="160" relative="1" as="geometry"><mxPoint x="10" y="330" as="sourcePoint"/><mxPoint x="170" y="330" as="targetPoint"/></mxGeometry></mxCell><mxCell id="KImIEiAIoKswVsLweTeq-148" value="ParkingDisplayBoard" style="swimlane;fontStyle=0;align=center;verticalAlign=top;childLayout=stackLayout;horizontal=1;startSize=26;horizontalStack=0;resizeParent=1;resizeLast=0;collapsible=1;marginBottom=0;rounded=0;shadow=0;strokeWidth=1;fillColor=#d5e8d4;strokeColor=#82b366;" parent="WIyWlLk6GJQsqaUBKTNV-1" vertex="1"><mxGeometry x="20" y="162" width="170" height="194" as="geometry"><mxRectangle x="340" y="380" width="170" height="26" as="alternateBounds"/></mxGeometry></mxCell><mxCell id="KImIEiAIoKswVsLweTeq-155" value="id: string" style="text;html=1;align=center;verticalAlign=middle;resizable=0;points=[];autosize=1;strokeColor=none;fillColor=none;" parent="KImIEiAIoKswVsLweTeq-148" vertex="1"><mxGeometry y="26" width="170" height="20" as="geometry"/></mxCell><mxCell id="KImIEiAIoKswVsLweTeq-149" value="name: string" style="text;html=1;align=center;verticalAlign=middle;resizable=0;points=[];autosize=1;strokeColor=none;fillColor=none;" parent="KImIEiAIoKswVsLweTeq-148" vertex="1"><mxGeometry y="46" width="170" height="20" as="geometry"/></mxCell><mxCell id="KImIEiAIoKswVsLweTeq-157" value="cFreeSpot: CompactSlot" style="text;html=1;align=center;verticalAlign=middle;resizable=0;points=[];autosize=1;strokeColor=none;fillColor=none;" parent="KImIEiAIoKswVsLweTeq-148" vertex="1"><mxGeometry y="66" width="170" height="20" as="geometry"/></mxCell><mxCell id="KImIEiAIoKswVsLweTeq-156" value="lFreeSpot: LargeSlot" style="text;html=1;align=center;verticalAlign=middle;resizable=0;points=[];autosize=1;strokeColor=none;fillColor=none;" parent="KImIEiAIoKswVsLweTeq-148" vertex="1"><mxGeometry y="86" width="170" height="20" as="geometry"/></mxCell><mxCell id="KImIEiAIoKswVsLweTeq-158" value="hcFreeSpot: HandCSpot" style="text;html=1;align=center;verticalAlign=middle;resizable=0;points=[];autosize=1;strokeColor=none;fillColor=none;" parent="KImIEiAIoKswVsLweTeq-148" vertex="1"><mxGeometry y="106" width="170" height="20" as="geometry"/></mxCell><mxCell id="KImIEiAIoKswVsLweTeq-159" value="mSpot: MotorBikeSlot" style="text;html=1;align=center;verticalAlign=middle;resizable=0;points=[];autosize=1;strokeColor=none;fillColor=none;" parent="KImIEiAIoKswVsLweTeq-148" vertex="1"><mxGeometry y="126" width="170" height="20" as="geometry"/></mxCell><mxCell id="KImIEiAIoKswVsLweTeq-160" value="evFreeSpot: EVSlot" style="text;html=1;align=center;verticalAlign=middle;resizable=0;points=[];autosize=1;strokeColor=none;fillColor=none;" parent="KImIEiAIoKswVsLweTeq-148" vertex="1"><mxGeometry y="146" width="170" height="20" as="geometry"/></mxCell><mxCell id="KImIEiAIoKswVsLweTeq-150" value="" style="line;strokeWidth=1;fillColor=none;align=left;verticalAlign=middle;spacingTop=-1;spacingLeft=3;spacingRight=3;rotatable=0;labelPosition=right;points=[];portConstraint=eastwest;" parent="KImIEiAIoKswVsLweTeq-148" vertex="1"><mxGeometry y="166" width="170" height="8" as="geometry"/></mxCell><mxCell id="KImIEiAIoKswVsLweTeq-154" value="showEmptySpotNumber(): void" style="text;html=1;align=center;verticalAlign=middle;resizable=0;points=[];autosize=1;strokeColor=none;fillColor=none;" parent="KImIEiAIoKswVsLweTeq-148" vertex="1"><mxGeometry y="174" width="170" height="20" as="geometry"/></mxCell><mxCell id="KImIEiAIoKswVsLweTeq-161" value="" style="endArrow=diamondThin;endFill=1;endSize=24;html=1;rounded=0;entryX=0;entryY=0;entryDx=0;entryDy=0;exitX=1;exitY=0;exitDx=0;exitDy=0;" parent="WIyWlLk6GJQsqaUBKTNV-1" source="KImIEiAIoKswVsLweTeq-148" target="KImIEiAIoKswVsLweTeq-113" edge="1"><mxGeometry width="160" relative="1" as="geometry"><mxPoint x="30" y="500" as="sourcePoint"/><mxPoint x="190" y="500" as="targetPoint"/></mxGeometry></mxCell><mxCell id="KImIEiAIoKswVsLweTeq-171" value="HCSpot" style="swimlane;fontStyle=0;align=center;verticalAlign=top;childLayout=stackLayout;horizontal=1;startSize=26;horizontalStack=0;resizeParent=1;resizeLast=0;collapsible=1;marginBottom=0;rounded=0;shadow=0;strokeWidth=1;fillColor=#d5e8d4;strokeColor=#82b366;" parent="WIyWlLk6GJQsqaUBKTNV-1" vertex="1"><mxGeometry x="20" y="380" width="80" height="50" as="geometry"><mxRectangle x="340" y="380" width="170" height="26" as="alternateBounds"/></mxGeometry></mxCell><mxCell id="KImIEiAIoKswVsLweTeq-172" value="CSpot" style="swimlane;fontStyle=0;align=center;verticalAlign=top;childLayout=stackLayout;horizontal=1;startSize=26;horizontalStack=0;resizeParent=1;resizeLast=0;collapsible=1;marginBottom=0;rounded=0;shadow=0;strokeWidth=1;fillColor=#d5e8d4;strokeColor=#82b366;" parent="WIyWlLk6GJQsqaUBKTNV-1" vertex="1"><mxGeometry x="20" y="440" width="80" height="50" as="geometry"><mxRectangle x="340" y="380" width="170" height="26" as="alternateBounds"/></mxGeometry></mxCell><mxCell id="KImIEiAIoKswVsLweTeq-173" value="LSpot" style="swimlane;fontStyle=0;align=center;verticalAlign=top;childLayout=stackLayout;horizontal=1;startSize=26;horizontalStack=0;resizeParent=1;resizeLast=0;collapsible=1;marginBottom=0;rounded=0;shadow=0;strokeWidth=1;fillColor=#d5e8d4;strokeColor=#82b366;" parent="WIyWlLk6GJQsqaUBKTNV-1" vertex="1"><mxGeometry x="20" y="500" width="80" height="50" as="geometry"><mxRectangle x="340" y="380" width="170" height="26" as="alternateBounds"/></mxGeometry></mxCell><mxCell id="KImIEiAIoKswVsLweTeq-174" value="MSpot" style="swimlane;fontStyle=0;align=center;verticalAlign=top;childLayout=stackLayout;horizontal=1;startSize=26;horizontalStack=0;resizeParent=1;resizeLast=0;collapsible=1;marginBottom=0;rounded=0;shadow=0;strokeWidth=1;fillColor=#d5e8d4;strokeColor=#82b366;" parent="WIyWlLk6GJQsqaUBKTNV-1" vertex="1"><mxGeometry x="20" y="558" width="80" height="50" as="geometry"><mxRectangle x="340" y="380" width="170" height="26" as="alternateBounds"/></mxGeometry></mxCell><mxCell id="KImIEiAIoKswVsLweTeq-175" value="EVSpot" style="swimlane;fontStyle=0;align=center;verticalAlign=top;childLayout=stackLayout;horizontal=1;startSize=26;horizontalStack=0;resizeParent=1;resizeLast=0;collapsible=1;marginBottom=0;rounded=0;shadow=0;strokeWidth=1;fillColor=#d5e8d4;strokeColor=#82b366;" parent="WIyWlLk6GJQsqaUBKTNV-1" vertex="1"><mxGeometry x="20" y="620" width="80" height="50" as="geometry"><mxRectangle x="340" y="380" width="170" height="26" as="alternateBounds"/></mxGeometry></mxCell><mxCell id="KImIEiAIoKswVsLweTeq-176" value="" style="endArrow=none;html=1;rounded=0;exitX=1;exitY=0.5;exitDx=0;exitDy=0;entryX=1;entryY=0.5;entryDx=0;entryDy=0;" parent="WIyWlLk6GJQsqaUBKTNV-1" source="KImIEiAIoKswVsLweTeq-171" target="KImIEiAIoKswVsLweTeq-175" edge="1"><mxGeometry width="50" height="50" relative="1" as="geometry"><mxPoint x="160" y="470" as="sourcePoint"/><mxPoint x="210" y="420" as="targetPoint"/><Array as="points"><mxPoint x="160" y="405"/><mxPoint x="160" y="645"/></Array></mxGeometry></mxCell><mxCell id="KImIEiAIoKswVsLweTeq-177" value="Extends" style="endArrow=block;endSize=16;endFill=0;html=1;rounded=0;" parent="WIyWlLk6GJQsqaUBKTNV-1" edge="1"><mxGeometry width="160" relative="1" as="geometry"><mxPoint x="160" y="490" as="sourcePoint"/><mxPoint x="270" y="490" as="targetPoint"/></mxGeometry></mxCell><mxCell id="KImIEiAIoKswVsLweTeq-178" value="" style="endArrow=none;html=1;rounded=0;exitX=1;exitY=0.5;exitDx=0;exitDy=0;" parent="WIyWlLk6GJQsqaUBKTNV-1" source="KImIEiAIoKswVsLweTeq-172" edge="1"><mxGeometry width="50" height="50" relative="1" as="geometry"><mxPoint x="190" y="440" as="sourcePoint"/><mxPoint x="160" y="465" as="targetPoint"/></mxGeometry></mxCell><mxCell id="KImIEiAIoKswVsLweTeq-179" value="" style="endArrow=none;html=1;rounded=0;exitX=1;exitY=0.5;exitDx=0;exitDy=0;" parent="WIyWlLk6GJQsqaUBKTNV-1" source="KImIEiAIoKswVsLweTeq-174" edge="1"><mxGeometry width="50" height="50" relative="1" as="geometry"><mxPoint x="170" y="610" as="sourcePoint"/><mxPoint x="160" y="583" as="targetPoint"/></mxGeometry></mxCell><mxCell id="KImIEiAIoKswVsLweTeq-180" value="" style="endArrow=none;html=1;rounded=0;exitX=1;exitY=0.5;exitDx=0;exitDy=0;" parent="WIyWlLk6GJQsqaUBKTNV-1" source="KImIEiAIoKswVsLweTeq-173" edge="1"><mxGeometry width="50" height="50" relative="1" as="geometry"><mxPoint x="220" y="630" as="sourcePoint"/><mxPoint x="160" y="525" as="targetPoint"/></mxGeometry></mxCell><mxCell id="KImIEiAIoKswVsLweTeq-182" value="&lt;&lt;ParkingSpotType&gt;&gt;enum" style="swimlane;fontStyle=0;align=center;verticalAlign=top;childLayout=stackLayout;horizontal=1;startSize=26;horizontalStack=0;resizeParent=1;resizeLast=0;collapsible=1;marginBottom=0;rounded=0;shadow=0;strokeWidth=1;fillColor=#fff2cc;strokeColor=#d6b656;" parent="WIyWlLk6GJQsqaUBKTNV-1" vertex="1"><mxGeometry x="200" y="690" width="160" height="86" as="geometry"><mxRectangle x="340" y="380" width="170" height="26" as="alternateBounds"/></mxGeometry></mxCell><mxCell id="KImIEiAIoKswVsLweTeq-183" value="HC" style="text;html=1;align=center;verticalAlign=middle;resizable=0;points=[];autosize=1;strokeColor=#d6b656;fillColor=#fff2cc;" parent="KImIEiAIoKswVsLweTeq-182" vertex="1"><mxGeometry y="26" width="160" height="20" as="geometry"/></mxCell><mxCell id="KImIEiAIoKswVsLweTeq-184" value="Compact" style="text;html=1;align=center;verticalAlign=middle;resizable=0;points=[];autosize=1;strokeColor=#d6b656;fillColor=#fff2cc;" parent="KImIEiAIoKswVsLweTeq-182" vertex="1"><mxGeometry y="46" width="160" height="20" as="geometry"/></mxCell><mxCell id="KImIEiAIoKswVsLweTeq-185" value="Electric" style="text;html=1;align=center;verticalAlign=middle;resizable=0;points=[];autosize=1;strokeColor=#d6b656;fillColor=#fff2cc;" parent="KImIEiAIoKswVsLweTeq-182" vertex="1"><mxGeometry y="66" width="160" height="20" as="geometry"/></mxCell><mxCell id="KImIEiAIoKswVsLweTeq-186" value="enum&lt;&lt;VehicleType&gt;&gt;" style="swimlane;fontStyle=0;align=center;verticalAlign=top;childLayout=stackLayout;horizontal=1;startSize=26;horizontalStack=0;resizeParent=1;resizeLast=0;collapsible=1;marginBottom=0;rounded=0;shadow=0;strokeWidth=1;fillColor=#fff2cc;strokeColor=#d6b656;" parent="WIyWlLk6GJQsqaUBKTNV-1" vertex="1"><mxGeometry x="370" y="690" width="160" height="106" as="geometry"><mxRectangle x="340" y="380" width="170" height="26" as="alternateBounds"/></mxGeometry></mxCell><mxCell id="KImIEiAIoKswVsLweTeq-187" value="Car" style="text;html=1;align=center;verticalAlign=middle;resizable=0;points=[];autosize=1;strokeColor=#d6b656;fillColor=#fff2cc;" parent="KImIEiAIoKswVsLweTeq-186" vertex="1"><mxGeometry y="26" width="160" height="20" as="geometry"/></mxCell><mxCell id="KImIEiAIoKswVsLweTeq-188" value="Truck" style="text;html=1;align=center;verticalAlign=middle;resizable=0;points=[];autosize=1;strokeColor=#d6b656;fillColor=#fff2cc;" parent="KImIEiAIoKswVsLweTeq-186" vertex="1"><mxGeometry y="46" width="160" height="20" as="geometry"/></mxCell><mxCell id="KImIEiAIoKswVsLweTeq-189" value="EV" style="text;html=1;align=center;verticalAlign=middle;resizable=0;points=[];autosize=1;strokeColor=#d6b656;fillColor=#fff2cc;" parent="KImIEiAIoKswVsLweTeq-186" vertex="1"><mxGeometry y="66" width="160" height="20" as="geometry"/></mxCell><mxCell id="KImIEiAIoKswVsLweTeq-209" value="Van" style="text;html=1;align=center;verticalAlign=middle;resizable=0;points=[];autosize=1;strokeColor=#d6b656;fillColor=#fff2cc;" parent="KImIEiAIoKswVsLweTeq-186" vertex="1"><mxGeometry y="86" width="160" height="20" as="geometry"/></mxCell><mxCell id="KImIEiAIoKswVsLweTeq-190" value="enum&lt;&lt;TicketStatus&gt;&gt;" style="swimlane;fontStyle=0;align=center;verticalAlign=top;childLayout=stackLayout;horizontal=1;startSize=26;horizontalStack=0;resizeParent=1;resizeLast=0;collapsible=1;marginBottom=0;rounded=0;shadow=0;strokeWidth=1;fillColor=#fff2cc;strokeColor=#d6b656;" parent="WIyWlLk6GJQsqaUBKTNV-1" vertex="1"><mxGeometry x="540" y="690" width="160" height="86" as="geometry"><mxRectangle x="340" y="380" width="170" height="26" as="alternateBounds"/></mxGeometry></mxCell><mxCell id="KImIEiAIoKswVsLweTeq-191" value="Active" style="text;html=1;align=center;verticalAlign=middle;resizable=0;points=[];autosize=1;strokeColor=#d6b656;fillColor=#fff2cc;" parent="KImIEiAIoKswVsLweTeq-190" vertex="1"><mxGeometry y="26" width="160" height="20" as="geometry"/></mxCell><mxCell id="KImIEiAIoKswVsLweTeq-192" value="Paid" style="text;html=1;align=center;verticalAlign=middle;resizable=0;points=[];autosize=1;strokeColor=#d6b656;fillColor=#fff2cc;" parent="KImIEiAIoKswVsLweTeq-190" vertex="1"><mxGeometry y="46" width="160" height="20" as="geometry"/></mxCell><mxCell id="KImIEiAIoKswVsLweTeq-193" value="Lost" style="text;html=1;align=center;verticalAlign=middle;resizable=0;points=[];autosize=1;strokeColor=#d6b656;fillColor=#fff2cc;" parent="KImIEiAIoKswVsLweTeq-190" vertex="1"><mxGeometry y="66" width="160" height="20" as="geometry"/></mxCell><mxCell id="KImIEiAIoKswVsLweTeq-194" value="enum&lt;&lt;AccountStatus&gt;&gt;" style="swimlane;fontStyle=0;align=center;verticalAlign=top;childLayout=stackLayout;horizontal=1;startSize=26;horizontalStack=0;resizeParent=1;resizeLast=0;collapsible=1;marginBottom=0;rounded=0;shadow=0;strokeWidth=1;fillColor=#fff2cc;strokeColor=#d6b656;" parent="WIyWlLk6GJQsqaUBKTNV-1" vertex="1"><mxGeometry x="710" y="690" width="160" height="106" as="geometry"><mxRectangle x="340" y="380" width="170" height="26" as="alternateBounds"/></mxGeometry></mxCell><mxCell id="KImIEiAIoKswVsLweTeq-195" value="Active" style="text;html=1;align=center;verticalAlign=middle;resizable=0;points=[];autosize=1;strokeColor=#d6b656;fillColor=#fff2cc;" parent="KImIEiAIoKswVsLweTeq-194" vertex="1"><mxGeometry y="26" width="160" height="20" as="geometry"/></mxCell><mxCell id="KImIEiAIoKswVsLweTeq-196" value="Closed" style="text;html=1;align=center;verticalAlign=middle;resizable=0;points=[];autosize=1;strokeColor=#d6b656;fillColor=#fff2cc;" parent="KImIEiAIoKswVsLweTeq-194" vertex="1"><mxGeometry y="46" width="160" height="20" as="geometry"/></mxCell><mxCell id="KImIEiAIoKswVsLweTeq-197" value="Canceled" style="text;html=1;align=center;verticalAlign=middle;resizable=0;points=[];autosize=1;strokeColor=#d6b656;fillColor=#fff2cc;" parent="KImIEiAIoKswVsLweTeq-194" vertex="1"><mxGeometry y="66" width="160" height="20" as="geometry"/></mxCell><mxCell id="KImIEiAIoKswVsLweTeq-210" value="Blacklisted" style="text;html=1;align=center;verticalAlign=middle;resizable=0;points=[];autosize=1;strokeColor=#d6b656;fillColor=#fff2cc;" parent="KImIEiAIoKswVsLweTeq-194" vertex="1"><mxGeometry y="86" width="160" height="20" as="geometry"/></mxCell><mxCell id="KImIEiAIoKswVsLweTeq-198" value="dataType&lt;&lt;Location&gt;&gt;" style="swimlane;fontStyle=0;align=center;verticalAlign=top;childLayout=stackLayout;horizontal=1;startSize=26;horizontalStack=0;resizeParent=1;resizeLast=0;collapsible=1;marginBottom=0;rounded=0;shadow=0;strokeWidth=1;fillColor=#dae8fc;strokeColor=#6c8ebf;" parent="WIyWlLk6GJQsqaUBKTNV-1" vertex="1"><mxGeometry x="880" y="572" width="130" height="126" as="geometry"><mxRectangle x="340" y="380" width="170" height="26" as="alternateBounds"/></mxGeometry></mxCell><mxCell id="KImIEiAIoKswVsLweTeq-199" value="streetAddress: string" style="text;html=1;align=center;verticalAlign=middle;resizable=0;points=[];autosize=1;strokeColor=#6c8ebf;fillColor=#dae8fc;" parent="KImIEiAIoKswVsLweTeq-198" vertex="1"><mxGeometry y="26" width="130" height="20" as="geometry"/></mxCell><mxCell id="KImIEiAIoKswVsLweTeq-200" value="city: string" style="text;html=1;align=center;verticalAlign=middle;resizable=0;points=[];autosize=1;strokeColor=#6c8ebf;fillColor=#dae8fc;" parent="KImIEiAIoKswVsLweTeq-198" vertex="1"><mxGeometry y="46" width="130" height="20" as="geometry"/></mxCell><mxCell id="KImIEiAIoKswVsLweTeq-201" value="state:string" style="text;html=1;align=center;verticalAlign=middle;resizable=0;points=[];autosize=1;strokeColor=#6c8ebf;fillColor=#dae8fc;" parent="KImIEiAIoKswVsLweTeq-198" vertex="1"><mxGeometry y="66" width="130" height="20" as="geometry"/></mxCell><mxCell id="KImIEiAIoKswVsLweTeq-207" value="zipcode: string" style="text;html=1;align=center;verticalAlign=middle;resizable=0;points=[];autosize=1;strokeColor=#6c8ebf;fillColor=#dae8fc;" parent="KImIEiAIoKswVsLweTeq-198" vertex="1"><mxGeometry y="86" width="130" height="20" as="geometry"/></mxCell><mxCell id="KImIEiAIoKswVsLweTeq-206" value="country: string" style="text;html=1;align=center;verticalAlign=middle;resizable=0;points=[];autosize=1;strokeColor=#6c8ebf;fillColor=#dae8fc;" parent="KImIEiAIoKswVsLweTeq-198" vertex="1"><mxGeometry y="106" width="130" height="20" as="geometry"/></mxCell><mxCell id="KImIEiAIoKswVsLweTeq-202" value="dataType&lt;&lt;Person&gt;&gt;" style="swimlane;fontStyle=0;align=center;verticalAlign=top;childLayout=stackLayout;horizontal=1;startSize=26;horizontalStack=0;resizeParent=1;resizeLast=0;collapsible=1;marginBottom=0;rounded=0;shadow=0;strokeWidth=1;fillColor=#dae8fc;strokeColor=#6c8ebf;" parent="WIyWlLk6GJQsqaUBKTNV-1" vertex="1"><mxGeometry x="1020" y="572" width="130" height="106" as="geometry"><mxRectangle x="340" y="380" width="170" height="26" as="alternateBounds"/></mxGeometry></mxCell><mxCell id="KImIEiAIoKswVsLweTeq-203" value="name: string" style="text;html=1;align=center;verticalAlign=middle;resizable=0;points=[];autosize=1;strokeColor=#6c8ebf;fillColor=#dae8fc;" parent="KImIEiAIoKswVsLweTeq-202" vertex="1"><mxGeometry y="26" width="130" height="20" as="geometry"/></mxCell><mxCell id="KImIEiAIoKswVsLweTeq-204" value="address: Location" style="text;html=1;align=center;verticalAlign=middle;resizable=0;points=[];autosize=1;strokeColor=#6c8ebf;fillColor=#dae8fc;" parent="KImIEiAIoKswVsLweTeq-202" vertex="1"><mxGeometry y="46" width="130" height="20" as="geometry"/></mxCell><mxCell id="KImIEiAIoKswVsLweTeq-205" value="email: string" style="text;html=1;align=center;verticalAlign=middle;resizable=0;points=[];autosize=1;strokeColor=#6c8ebf;fillColor=#dae8fc;" parent="KImIEiAIoKswVsLweTeq-202" vertex="1"><mxGeometry y="66" width="130" height="20" as="geometry"/></mxCell><mxCell id="KImIEiAIoKswVsLweTeq-208" value="phone: string" style="text;html=1;align=center;verticalAlign=middle;resizable=0;points=[];autosize=1;strokeColor=#6c8ebf;fillColor=#dae8fc;" parent="KImIEiAIoKswVsLweTeq-202" vertex="1"><mxGeometry y="86" width="130" height="20" as="geometry"/></mxCell></root></mxGraphModel></diagram><diagram id="Jpx2W6W5DB_1VPCqQbi9" name="UsecaseDiagram"><mxGraphModel dx="980" dy="663" grid="1" gridSize="10" guides="1" tooltips="1" connect="1" arrows="1" fold="1" page="1" pageScale="1" pageWidth="827" pageHeight="1169" math="0" shadow="0"><root><mxCell id="Pgwygh29MQpYi-2Cvsc7-0"/><mxCell id="Pgwygh29MQpYi-2Cvsc7-1" parent="Pgwygh29MQpYi-2Cvsc7-0"/><mxCell id="WYlBNnRh4ry-Hm6ovd7g-0" value="PA" style="shape=umlActor;verticalLabelPosition=bottom;verticalAlign=top;html=1;" parent="Pgwygh29MQpYi-2Cvsc7-1" vertex="1"><mxGeometry x="10" y="400" width="30" height="60" as="geometry"/></mxCell><mxCell id="WYlBNnRh4ry-Hm6ovd7g-1" value="Customer" style="shape=umlActor;verticalLabelPosition=bottom;verticalAlign=top;html=1;" parent="Pgwygh29MQpYi-2Cvsc7-1" vertex="1"><mxGeometry x="100" y="575" width="30" height="60" as="geometry"/></mxCell><mxCell id="WYlBNnRh4ry-Hm6ovd7g-2" value="Admin" style="shape=umlActor;verticalLabelPosition=bottom;verticalAlign=top;html=1;" parent="Pgwygh29MQpYi-2Cvsc7-1" vertex="1"><mxGeometry x="780" y="555" width="30" height="60" as="geometry"/></mxCell><mxCell id="WYlBNnRh4ry-Hm6ovd7g-3" value="System" style="shape=umlActor;verticalLabelPosition=bottom;verticalAlign=top;html=1;" parent="Pgwygh29MQpYi-2Cvsc7-1" vertex="1"><mxGeometry x="780" y="930" width="30" height="60" as="geometry"/></mxCell><mxCell id="WYlBNnRh4ry-Hm6ovd7g-4" value="Add Parking&lt;br&gt;display bord" style="ellipse;whiteSpace=wrap;html=1;" parent="Pgwygh29MQpYi-2Cvsc7-1" vertex="1"><mxGeometry x="320" y="20" width="100" height="40" as="geometry"/></mxCell><mxCell id="WYlBNnRh4ry-Hm6ovd7g-7" value="Add EV panel" style="ellipse;whiteSpace=wrap;html=1;" parent="Pgwygh29MQpYi-2Cvsc7-1" vertex="1"><mxGeometry x="320" y="80" width="100" height="40" as="geometry"/></mxCell><mxCell id="WYlBNnRh4ry-Hm6ovd7g-8" value="View Account" style="ellipse;whiteSpace=wrap;html=1;" parent="Pgwygh29MQpYi-2Cvsc7-1" vertex="1"><mxGeometry x="320" y="240" width="100" height="40" as="geometry"/></mxCell><mxCell id="WYlBNnRh4ry-Hm6ovd7g-9" value="Extends" style="endArrow=block;endSize=16;endFill=0;html=1;rounded=0;exitX=0.5;exitY=0.5;exitDx=0;exitDy=0;exitPerimeter=0;entryX=0.5;entryY=0;entryDx=0;entryDy=0;entryPerimeter=0;" parent="Pgwygh29MQpYi-2Cvsc7-1" source="WYlBNnRh4ry-Hm6ovd7g-0" target="WYlBNnRh4ry-Hm6ovd7g-1" edge="1"><mxGeometry width="160" relative="1" as="geometry"><mxPoint x="60" y="340" as="sourcePoint"/><mxPoint x="220" y="340" as="targetPoint"/></mxGeometry></mxCell><mxCell id="WYlBNnRh4ry-Hm6ovd7g-10" value="Add Parking floor" style="ellipse;whiteSpace=wrap;html=1;" parent="Pgwygh29MQpYi-2Cvsc7-1" vertex="1"><mxGeometry x="550" y="20" width="100" height="40" as="geometry"/></mxCell><mxCell id="WYlBNnRh4ry-Hm6ovd7g-11" value="Add Parking Spot" style="ellipse;whiteSpace=wrap;html=1;" parent="Pgwygh29MQpYi-2Cvsc7-1" vertex="1"><mxGeometry x="550" y="80" width="100" height="40" as="geometry"/></mxCell><mxCell id="WYlBNnRh4ry-Hm6ovd7g-12" value="Add PA" style="ellipse;whiteSpace=wrap;html=1;" parent="Pgwygh29MQpYi-2Cvsc7-1" vertex="1"><mxGeometry x="550" y="140" width="100" height="40" as="geometry"/></mxCell><mxCell id="WYlBNnRh4ry-Hm6ovd7g-13" value="Add/Modify Parking rate" style="ellipse;whiteSpace=wrap;html=1;" parent="Pgwygh29MQpYi-2Cvsc7-1" vertex="1"><mxGeometry x="550" y="200" width="100" height="40" as="geometry"/></mxCell><mxCell id="WYlBNnRh4ry-Hm6ovd7g-14" value="Add Entrance/Exit Panel" style="ellipse;whiteSpace=wrap;html=1;" parent="Pgwygh29MQpYi-2Cvsc7-1" vertex="1"><mxGeometry x="550" y="260" width="100" height="40" as="geometry"/></mxCell><mxCell id="WYlBNnRh4ry-Hm6ovd7g-15" value="" style="endArrow=none;html=1;rounded=0;entryX=1;entryY=0.5;entryDx=0;entryDy=0;exitX=0.5;exitY=0.5;exitDx=0;exitDy=0;exitPerimeter=0;" parent="Pgwygh29MQpYi-2Cvsc7-1" source="WYlBNnRh4ry-Hm6ovd7g-2" target="WYlBNnRh4ry-Hm6ovd7g-10" edge="1"><mxGeometry width="50" height="50" relative="1" as="geometry"><mxPoint x="680" y="420" as="sourcePoint"/><mxPoint x="730" y="370" as="targetPoint"/></mxGeometry></mxCell><mxCell id="WYlBNnRh4ry-Hm6ovd7g-16" value="" style="endArrow=none;html=1;rounded=0;entryX=1;entryY=0.5;entryDx=0;entryDy=0;exitX=0.5;exitY=0.5;exitDx=0;exitDy=0;exitPerimeter=0;" parent="Pgwygh29MQpYi-2Cvsc7-1" source="WYlBNnRh4ry-Hm6ovd7g-2" target="WYlBNnRh4ry-Hm6ovd7g-11" edge="1"><mxGeometry width="50" height="50" relative="1" as="geometry"><mxPoint x="790" y="580" as="sourcePoint"/><mxPoint x="630" y="530" as="targetPoint"/></mxGeometry></mxCell><mxCell id="WYlBNnRh4ry-Hm6ovd7g-17" value="" style="endArrow=none;html=1;rounded=0;entryX=1;entryY=0.5;entryDx=0;entryDy=0;exitX=0.5;exitY=0.5;exitDx=0;exitDy=0;exitPerimeter=0;" parent="Pgwygh29MQpYi-2Cvsc7-1" source="WYlBNnRh4ry-Hm6ovd7g-2" target="WYlBNnRh4ry-Hm6ovd7g-12" edge="1"><mxGeometry width="50" height="50" relative="1" as="geometry"><mxPoint x="560" y="550" as="sourcePoint"/><mxPoint x="610" y="500" as="targetPoint"/></mxGeometry></mxCell><mxCell id="WYlBNnRh4ry-Hm6ovd7g-18" value="" style="endArrow=none;html=1;rounded=0;entryX=1;entryY=0.5;entryDx=0;entryDy=0;" parent="Pgwygh29MQpYi-2Cvsc7-1" source="WYlBNnRh4ry-Hm6ovd7g-2" target="WYlBNnRh4ry-Hm6ovd7g-13" edge="1"><mxGeometry width="50" height="50" relative="1" as="geometry"><mxPoint x="490" y="580" as="sourcePoint"/><mxPoint x="540" y="530" as="targetPoint"/></mxGeometry></mxCell><mxCell id="WYlBNnRh4ry-Hm6ovd7g-19" value="" style="endArrow=none;html=1;rounded=0;exitX=0.5;exitY=0.5;exitDx=0;exitDy=0;exitPerimeter=0;entryX=1;entryY=0.5;entryDx=0;entryDy=0;" parent="Pgwygh29MQpYi-2Cvsc7-1" source="WYlBNnRh4ry-Hm6ovd7g-2" target="WYlBNnRh4ry-Hm6ovd7g-14" edge="1"><mxGeometry width="50" height="50" relative="1" as="geometry"><mxPoint x="790" y="580" as="sourcePoint"/><mxPoint x="650" y="310" as="targetPoint"/></mxGeometry></mxCell><mxCell id="WYlBNnRh4ry-Hm6ovd7g-21" value="include" style="endArrow=block;endSize=16;endFill=0;html=1;rounded=0;exitX=0;exitY=0.5;exitDx=0;exitDy=0;entryX=1;entryY=0.5;entryDx=0;entryDy=0;" parent="Pgwygh29MQpYi-2Cvsc7-1" source="WYlBNnRh4ry-Hm6ovd7g-10" target="WYlBNnRh4ry-Hm6ovd7g-4" edge="1"><mxGeometry width="160" relative="1" as="geometry"><mxPoint x="230" y="600" as="sourcePoint"/><mxPoint x="390" y="600" as="targetPoint"/></mxGeometry></mxCell><mxCell id="WYlBNnRh4ry-Hm6ovd7g-22" value="include" style="endArrow=block;endSize=16;endFill=0;html=1;rounded=0;exitX=0;exitY=0.5;exitDx=0;exitDy=0;entryX=1;entryY=0.5;entryDx=0;entryDy=0;" parent="Pgwygh29MQpYi-2Cvsc7-1" source="WYlBNnRh4ry-Hm6ovd7g-11" target="WYlBNnRh4ry-Hm6ovd7g-7" edge="1"><mxGeometry width="160" relative="1" as="geometry"><mxPoint x="550" y="90" as="sourcePoint"/><mxPoint x="420" y="90" as="targetPoint"/></mxGeometry></mxCell><mxCell id="WYlBNnRh4ry-Hm6ovd7g-23" value="" style="endArrow=none;html=1;rounded=0;exitX=0.5;exitY=0.5;exitDx=0;exitDy=0;exitPerimeter=0;entryX=0;entryY=0.5;entryDx=0;entryDy=0;" parent="Pgwygh29MQpYi-2Cvsc7-1" source="WYlBNnRh4ry-Hm6ovd7g-0" target="WYlBNnRh4ry-Hm6ovd7g-8" edge="1"><mxGeometry width="50" height="50" relative="1" as="geometry"><mxPoint x="300" y="440" as="sourcePoint"/><mxPoint x="350" y="390" as="targetPoint"/></mxGeometry></mxCell><mxCell id="WYlBNnRh4ry-Hm6ovd7g-24" value="" style="endArrow=none;html=1;rounded=0;exitX=1;exitY=0.5;exitDx=0;exitDy=0;entryX=0.5;entryY=0.5;entryDx=0;entryDy=0;entryPerimeter=0;" parent="Pgwygh29MQpYi-2Cvsc7-1" source="WYlBNnRh4ry-Hm6ovd7g-8" target="WYlBNnRh4ry-Hm6ovd7g-2" edge="1"><mxGeometry width="50" height="50" relative="1" as="geometry"><mxPoint x="580" y="470" as="sourcePoint"/><mxPoint x="630" y="420" as="targetPoint"/></mxGeometry></mxCell><mxCell id="WYlBNnRh4ry-Hm6ovd7g-25" value="Update Account" style="ellipse;whiteSpace=wrap;html=1;" parent="Pgwygh29MQpYi-2Cvsc7-1" vertex="1"><mxGeometry x="320" y="310" width="100" height="40" as="geometry"/></mxCell><mxCell id="WYlBNnRh4ry-Hm6ovd7g-26" value="" style="endArrow=none;html=1;rounded=0;entryX=0;entryY=0.5;entryDx=0;entryDy=0;exitX=0.5;exitY=0.5;exitDx=0;exitDy=0;exitPerimeter=0;" parent="Pgwygh29MQpYi-2Cvsc7-1" source="WYlBNnRh4ry-Hm6ovd7g-0" target="WYlBNnRh4ry-Hm6ovd7g-25" edge="1"><mxGeometry width="50" height="50" relative="1" as="geometry"><mxPoint x="60" y="450" as="sourcePoint"/><mxPoint x="250" y="470" as="targetPoint"/></mxGeometry></mxCell><mxCell id="WYlBNnRh4ry-Hm6ovd7g-27" value="" style="endArrow=none;html=1;rounded=0;exitX=1;exitY=0.5;exitDx=0;exitDy=0;entryX=0.5;entryY=0.5;entryDx=0;entryDy=0;entryPerimeter=0;" parent="Pgwygh29MQpYi-2Cvsc7-1" source="WYlBNnRh4ry-Hm6ovd7g-25" target="WYlBNnRh4ry-Hm6ovd7g-2" edge="1"><mxGeometry width="50" height="50" relative="1" as="geometry"><mxPoint x="430" y="340" as="sourcePoint"/><mxPoint x="460" y="510" as="targetPoint"/></mxGeometry></mxCell><mxCell id="WYlBNnRh4ry-Hm6ovd7g-28" value="Login/Logout" style="ellipse;whiteSpace=wrap;html=1;" parent="Pgwygh29MQpYi-2Cvsc7-1" vertex="1"><mxGeometry x="320" y="380" width="100" height="40" as="geometry"/></mxCell><mxCell id="WYlBNnRh4ry-Hm6ovd7g-29" value="" style="endArrow=none;html=1;rounded=0;exitX=0.5;exitY=0.5;exitDx=0;exitDy=0;exitPerimeter=0;entryX=0;entryY=0.5;entryDx=0;entryDy=0;" parent="Pgwygh29MQpYi-2Cvsc7-1" source="WYlBNnRh4ry-Hm6ovd7g-0" target="WYlBNnRh4ry-Hm6ovd7g-28" edge="1"><mxGeometry width="50" height="50" relative="1" as="geometry"><mxPoint x="190" y="550" as="sourcePoint"/><mxPoint x="240" y="500" as="targetPoint"/></mxGeometry></mxCell><mxCell id="WYlBNnRh4ry-Hm6ovd7g-30" value="" style="endArrow=none;html=1;rounded=0;exitX=1;exitY=0.5;exitDx=0;exitDy=0;entryX=0.5;entryY=0.5;entryDx=0;entryDy=0;entryPerimeter=0;" parent="Pgwygh29MQpYi-2Cvsc7-1" source="WYlBNnRh4ry-Hm6ovd7g-28" target="WYlBNnRh4ry-Hm6ovd7g-2" edge="1"><mxGeometry width="50" height="50" relative="1" as="geometry"><mxPoint x="420" y="540" as="sourcePoint"/><mxPoint x="470" y="490" as="targetPoint"/></mxGeometry></mxCell><mxCell id="WYlBNnRh4ry-Hm6ovd7g-31" value="Cash Payment" style="ellipse;whiteSpace=wrap;html=1;" parent="Pgwygh29MQpYi-2Cvsc7-1" vertex="1"><mxGeometry x="320" y="440" width="100" height="40" as="geometry"/></mxCell><mxCell id="WYlBNnRh4ry-Hm6ovd7g-32" value="" style="endArrow=none;html=1;rounded=0;exitX=0.5;exitY=0.5;exitDx=0;exitDy=0;exitPerimeter=0;entryX=0;entryY=0.5;entryDx=0;entryDy=0;" parent="Pgwygh29MQpYi-2Cvsc7-1" source="WYlBNnRh4ry-Hm6ovd7g-0" target="WYlBNnRh4ry-Hm6ovd7g-31" edge="1"><mxGeometry width="50" height="50" relative="1" as="geometry"><mxPoint x="270" y="660" as="sourcePoint"/><mxPoint x="320" y="610" as="targetPoint"/></mxGeometry></mxCell><mxCell id="WYlBNnRh4ry-Hm6ovd7g-33" value="Take Ticket" style="ellipse;whiteSpace=wrap;html=1;" parent="Pgwygh29MQpYi-2Cvsc7-1" vertex="1"><mxGeometry x="320" y="510" width="100" height="40" as="geometry"/></mxCell><mxCell id="WYlBNnRh4ry-Hm6ovd7g-34" value="" style="endArrow=none;html=1;rounded=0;exitX=0.5;exitY=0.5;exitDx=0;exitDy=0;exitPerimeter=0;entryX=0;entryY=0.5;entryDx=0;entryDy=0;" parent="Pgwygh29MQpYi-2Cvsc7-1" source="WYlBNnRh4ry-Hm6ovd7g-1" target="WYlBNnRh4ry-Hm6ovd7g-33" edge="1"><mxGeometry width="50" height="50" relative="1" as="geometry"><mxPoint x="170" y="550" as="sourcePoint"/><mxPoint x="220" y="500" as="targetPoint"/></mxGeometry></mxCell><mxCell id="WYlBNnRh4ry-Hm6ovd7g-35" value="Scan Ticket" style="ellipse;whiteSpace=wrap;html=1;" parent="Pgwygh29MQpYi-2Cvsc7-1" vertex="1"><mxGeometry x="320" y="585" width="100" height="40" as="geometry"/></mxCell><mxCell id="WYlBNnRh4ry-Hm6ovd7g-36" value="" style="endArrow=none;html=1;rounded=0;exitX=0.5;exitY=0.5;exitDx=0;exitDy=0;exitPerimeter=0;entryX=0;entryY=0.5;entryDx=0;entryDy=0;" parent="Pgwygh29MQpYi-2Cvsc7-1" source="WYlBNnRh4ry-Hm6ovd7g-1" target="WYlBNnRh4ry-Hm6ovd7g-35" edge="1"><mxGeometry width="50" height="50" relative="1" as="geometry"><mxPoint x="190" y="750" as="sourcePoint"/><mxPoint x="240" y="700" as="targetPoint"/></mxGeometry></mxCell><mxCell id="WYlBNnRh4ry-Hm6ovd7g-37" value="Pay Ticket" style="ellipse;whiteSpace=wrap;html=1;" parent="Pgwygh29MQpYi-2Cvsc7-1" vertex="1"><mxGeometry x="320" y="710" width="100" height="40" as="geometry"/></mxCell><mxCell id="WYlBNnRh4ry-Hm6ovd7g-38" value="include" style="endArrow=block;endSize=16;endFill=0;html=1;rounded=0;entryX=0.5;entryY=1;entryDx=0;entryDy=0;" parent="Pgwygh29MQpYi-2Cvsc7-1" source="WYlBNnRh4ry-Hm6ovd7g-37" target="WYlBNnRh4ry-Hm6ovd7g-35" edge="1"><mxGeometry x="-0.2941" width="160" relative="1" as="geometry"><mxPoint x="620" y="715" as="sourcePoint"/><mxPoint x="490" y="715" as="targetPoint"/><mxPoint as="offset"/></mxGeometry></mxCell><mxCell id="WYlBNnRh4ry-Hm6ovd7g-39" value="Credit Card Payment" style="ellipse;whiteSpace=wrap;html=1;" parent="Pgwygh29MQpYi-2Cvsc7-1" vertex="1"><mxGeometry x="320" y="810" width="100" height="40" as="geometry"/></mxCell><mxCell id="WYlBNnRh4ry-Hm6ovd7g-40" value="include" style="endArrow=block;endSize=16;endFill=0;html=1;rounded=0;entryX=0.5;entryY=0;entryDx=0;entryDy=0;exitX=0.5;exitY=1;exitDx=0;exitDy=0;" parent="Pgwygh29MQpYi-2Cvsc7-1" source="WYlBNnRh4ry-Hm6ovd7g-37" target="WYlBNnRh4ry-Hm6ovd7g-39" edge="1"><mxGeometry x="-0.2941" width="160" relative="1" as="geometry"><mxPoint x="530" y="735" as="sourcePoint"/><mxPoint x="530" y="650" as="targetPoint"/><mxPoint as="offset"/></mxGeometry></mxCell><mxCell id="WYlBNnRh4ry-Hm6ovd7g-41" value="" style="endArrow=none;html=1;rounded=0;exitX=0.5;exitY=0.5;exitDx=0;exitDy=0;exitPerimeter=0;entryX=0;entryY=0.5;entryDx=0;entryDy=0;" parent="Pgwygh29MQpYi-2Cvsc7-1" source="WYlBNnRh4ry-Hm6ovd7g-1" target="WYlBNnRh4ry-Hm6ovd7g-37" edge="1"><mxGeometry width="50" height="50" relative="1" as="geometry"><mxPoint x="170" y="900" as="sourcePoint"/><mxPoint x="220" y="850" as="targetPoint"/></mxGeometry></mxCell><mxCell id="WYlBNnRh4ry-Hm6ovd7g-42" value="" style="endArrow=none;html=1;rounded=0;exitX=0.5;exitY=0.5;exitDx=0;exitDy=0;exitPerimeter=0;entryX=0;entryY=0.5;entryDx=0;entryDy=0;" parent="Pgwygh29MQpYi-2Cvsc7-1" source="WYlBNnRh4ry-Hm6ovd7g-1" target="WYlBNnRh4ry-Hm6ovd7g-39" edge="1"><mxGeometry width="50" height="50" relative="1" as="geometry"><mxPoint x="230" y="890" as="sourcePoint"/><mxPoint x="280" y="840" as="targetPoint"/></mxGeometry></mxCell><mxCell id="WYlBNnRh4ry-Hm6ovd7g-43" value="Assign Parking Spot to vehicle" style="ellipse;whiteSpace=wrap;html=1;" parent="Pgwygh29MQpYi-2Cvsc7-1" vertex="1"><mxGeometry x="550" y="750" width="120" height="40" as="geometry"/></mxCell><mxCell id="WYlBNnRh4ry-Hm6ovd7g-44" value="" style="endArrow=none;html=1;rounded=0;exitX=1;exitY=0.5;exitDx=0;exitDy=0;entryX=0.5;entryY=0.5;entryDx=0;entryDy=0;entryPerimeter=0;" parent="Pgwygh29MQpYi-2Cvsc7-1" source="WYlBNnRh4ry-Hm6ovd7g-43" target="WYlBNnRh4ry-Hm6ovd7g-3" edge="1"><mxGeometry width="50" height="50" relative="1" as="geometry"><mxPoint x="760" y="950" as="sourcePoint"/><mxPoint x="810" y="900" as="targetPoint"/></mxGeometry></mxCell><mxCell id="WYlBNnRh4ry-Hm6ovd7g-45" value="Remove a vehicle from parking spot" style="ellipse;whiteSpace=wrap;html=1;" parent="Pgwygh29MQpYi-2Cvsc7-1" vertex="1"><mxGeometry x="550" y="850" width="120" height="40" as="geometry"/></mxCell><mxCell id="WYlBNnRh4ry-Hm6ovd7g-46" value="" style="endArrow=none;html=1;rounded=0;exitX=1;exitY=0.5;exitDx=0;exitDy=0;entryX=0.5;entryY=0.5;entryDx=0;entryDy=0;entryPerimeter=0;" parent="Pgwygh29MQpYi-2Cvsc7-1" source="WYlBNnRh4ry-Hm6ovd7g-45" target="WYlBNnRh4ry-Hm6ovd7g-3" edge="1"><mxGeometry width="50" height="50" relative="1" as="geometry"><mxPoint x="570" y="1020" as="sourcePoint"/><mxPoint x="620" y="970" as="targetPoint"/></mxGeometry></mxCell><mxCell id="WYlBNnRh4ry-Hm6ovd7g-47" value="Assign Parking Spot to vehicle" style="ellipse;whiteSpace=wrap;html=1;" parent="Pgwygh29MQpYi-2Cvsc7-1" vertex="1"><mxGeometry x="560" y="940" width="110" height="40" as="geometry"/></mxCell><mxCell id="WYlBNnRh4ry-Hm6ovd7g-48" value="" style="endArrow=none;html=1;rounded=0;entryX=0.5;entryY=0.5;entryDx=0;entryDy=0;entryPerimeter=0;exitX=1;exitY=0.5;exitDx=0;exitDy=0;" parent="Pgwygh29MQpYi-2Cvsc7-1" source="WYlBNnRh4ry-Hm6ovd7g-47" target="WYlBNnRh4ry-Hm6ovd7g-3" edge="1"><mxGeometry width="50" height="50" relative="1" as="geometry"><mxPoint x="670" y="1130" as="sourcePoint"/><mxPoint x="720" y="1080" as="targetPoint"/></mxGeometry></mxCell><mxCell id="WYlBNnRh4ry-Hm6ovd7g-49" value="Show available Parking Spot to message" style="ellipse;whiteSpace=wrap;html=1;" parent="Pgwygh29MQpYi-2Cvsc7-1" vertex="1"><mxGeometry x="555" y="1050" width="110" height="60" as="geometry"/></mxCell><mxCell id="WYlBNnRh4ry-Hm6ovd7g-50" value="" style="endArrow=none;html=1;rounded=0;entryX=0.5;entryY=0.5;entryDx=0;entryDy=0;entryPerimeter=0;exitX=1;exitY=0.5;exitDx=0;exitDy=0;" parent="Pgwygh29MQpYi-2Cvsc7-1" source="WYlBNnRh4ry-Hm6ovd7g-49" target="WYlBNnRh4ry-Hm6ovd7g-3" edge="1"><mxGeometry width="50" height="50" relative="1" as="geometry"><mxPoint x="665" y="1130" as="sourcePoint"/><mxPoint x="735.7106781186548" y="1080" as="targetPoint"/></mxGeometry></mxCell></root></mxGraphModel></diagram></mxfile>